<?xml version="1.0" encoding="UTF-8"?>
<svg id="b" data-name="Layer 2" xmlns="http://www.w3.org/2000/svg" viewBox="0 0 300 100">
  <g id="c" data-name="Layer 1">
    <g>
      <g>
        <path d="m74.07,40.57h3.69s6.15,0,6.15-6.97-6.15-6.56-6.15-6.56h-3.69v13.53h0Zm0,33.63h4.1s6.56,0,6.56-8.2-6.56-7.79-6.56-7.79h-4.1v15.99Zm12.3,20.51h-39.37V6.53h41.01s26.66.82,26.66,19.69c0,16.41-10.25,21.74-10.25,21.74,0,0,13.54,4.51,13.54,20.1,0,28.3-31.58,26.66-31.58,26.66Zm144.77-45.12c0-6.15-.41-22.56-10.66-22.56s-10.66,16.4-10.66,22.56c0,5.74.41,22.15,10.66,22.15s10.66-16.4,10.66-22.15Zm18.05,27.89h8.2v16.4h-39.78s-36.5,3.69-36.5-43.88c0-28.71,16.41-45.52,38.96-45.52s38.96,16.81,38.96,45.94c0,17.23-9.84,27.07-9.84,27.07Z" fill-rule="evenodd" stroke-width="0"/>
        <path d="m153.22,75.02c-1.64-2.05-2.87-4.1-4.51-5.74-1.23-1.64-2.87-3.28-4.1-4.51-1.23.41-4.92,2.46-4.92,6.97,0,4.92,2.87,6.15,6.56,6.15,2.87,0,6.15-2.46,6.97-2.87h0Zm-3.69-32.4s-3.69-2.87-3.69-6.56c0-2.46,1.23-4.1,3.69-4.1s4.51,1.23,4.51,4.1c0,4.1-4.51,6.56-4.51,6.56Zm15.58,51.27l-2.46-3.69c-5.33,3.28-11.48,5.33-18.46,5.33-17.63,0-24.61-10.25-24.61-20.51,0-15.18,10.66-20.51,13.53-21.74-2.87-2.87-6.97-8.61-6.97-16.81,0-13.12,11.07-20.1,22.56-20.1s23.38,8.2,23.38,20.1-11.89,18.87-11.89,18.87c1.23,1.23,4.1,4.1,6.97,7.79l4.1-3.69,11.89,13.12-5.33,4.92c4.1,7.79,9.43,16.4,9.43,16.4h-22.15s0,0,0,0Z" fill-rule="evenodd" stroke-width="0"/>
      </g>
      <rect width="300" height="100" fill="none" stroke-width="0"/>
    </g>
  </g>
</svg>