<?xml version="1.0" encoding="UTF-8"?>
<svg id="b" data-name="Layer 2" xmlns="http://www.w3.org/2000/svg" viewBox="0 0 300 100">
  <g id="c" data-name="Layer 1">
    <g>
      <rect width="300" height="100" fill="none" stroke-width="0"/>
      <g>
        <path d="m76.14,32.85c.29-1.37.53-2.76.86-4.12.99-4.05,2.76-7.74,5.4-10.98.34-.41.92-.62,1.39-.92.18.52.5,1.03.53,1.56,1,14.31,6.38,26.5,17.42,35.91,3.33,2.84,7.23,4.72,11.4,6.03.1.03.22.03.31.08.33.23.65.47.97.71-.31.24-.59.6-.94.69-1.48.37-2.96.79-4.46.97-5.98.69-11.87.25-17.44-2.16-8.53-3.7-13.27-10.44-15.03-19.43-.14-.72-.28-1.44-.42-2.16,0-2.06,0-4.12,0-6.18Z" stroke-width="0"/>
        <path d="m99.37,2.8c4.25,1.51,5.82,5.07,6.66,9.02,2.1,9.98.14,19.21-5.47,27.69-.48.73-1.15,1.35-1.74,2.01-.58.65-1.21.65-1.66-.08-1.56-2.48-3.26-4.9-4.57-7.51-2.66-5.31-4-10.98-3.82-16.95.1-3.44.73-6.77,2.55-9.77,1.22-2.01,2.69-3.74,5.07-4.41h2.98Z" stroke-width="0"/>
        <path d="m215.93,97.2c-.09-.06-.2-.1-.25-.18-.24-.4-.47-.82-.7-1.23.41-.2.81-.58,1.22-.58,1.71.03,2.62-1.2,1.99-2.81-.84-2.14-1.69-4.28-2.54-6.42-.1-.26-.24-.52-.31-.79-.2-.76-.12-1.44.75-1.73.83-.28,1.28.22,1.53.91.61,1.7,1.17,3.41,1.76,5.12.11.32.25.63.45,1.13.72-2.05,1.37-3.91,2.03-5.76.13-.36.23-.82.5-1.03.31-.24.84-.41,1.2-.31.3.08.6.57.66.93.07.39-.09.84-.24,1.23-1.11,2.95-2.25,5.88-3.35,8.83-.45,1.21-1.12,2.19-2.37,2.68h-2.34Z" stroke-width="0"/>
        <path d="m231.06,73.33c-.53.4-1.13,1.02-1.75.46-.43-.39-.7-1.12-.74-1.73-.11-1.41-.02-2.83-.04-4.25-.03-1.35-.45-1.91-1.43-1.97-1.14-.07-2.1.65-2.21,1.83-.12,1.34-.08,2.69-.12,4.03-.01.42.09.93-.11,1.25-.26.42-.72.89-1.17.97-.66.13-1.17-.38-1.18-1.07-.03-2.66-.05-5.31.03-7.97,0-.34.53-.88.89-.94.37-.06.85.3,1.22.57.16.12.19.43.21.51.82-.37,1.58-.88,2.4-1.06,1.84-.39,2.87.23,4,2.14v7.25Z" stroke-width="0"/>
        <path d="m132.69,34.31c-.04,4.79-1.27,9.21-4.13,13.08-3.53,4.77-8.41,6.48-14.19,6.06-5.06-.37-9.08-2.78-12.5-6.34-1.18-1.23-1.17-1.59-.04-2.87,5.32-5.98,9.1-12.8,11.25-20.52,1.28-4.57,1.93-9.22,1.95-13.97,0-.32,0-.64,0-.96.04-1.31.61-1.67,1.66-.9,2.03,1.49,4.11,2.93,5.95,4.63,5.15,4.76,8.59,10.52,9.64,17.55.21,1.4.27,2.82.41,4.23Z" stroke-width="0"/>
        <path d="m199.53,29.54c-.02-1.63-.26-3.14-1.1-4.52-.74-1.22-1.99-1.59-3.27-1.7-1.27-.11-2.56-.1-3.82,0-2.31.18-4.06,1.36-5.32,3.29-.35.53-.69,1.07-1.06,1.6-.99,1.44-2.16,1.82-3.87,1.27-1.5-.48-2.3-1.57-2.26-3.2.06-2.78,1.56-4.72,3.73-6.21,1.93-1.32,4.1-2.07,6.42-2.41,3.54-.52,7.08-.51,10.58.23,5.12,1.08,7.68,3.91,8.03,9.17.23,3.57.24,7.16.17,10.74-.04,2.47.09,4.88.86,7.24.2.61.36,1.23.49,1.85.39,1.81-.14,3.04-1.68,3.96-1.47.88-3.06.85-4.32-.36-1.11-1.07-2.03-2.34-3.07-3.57-1.17.75-2.38,1.6-3.66,2.32-4.06,2.27-8.38,2.96-12.82,1.44-6.33-2.18-8.36-9.91-3.97-14.73,1.59-1.74,3.66-2.62,5.92-3.13,4.32-.97,8.64-1.97,12.95-2.97.34-.08.67-.2,1.06-.32Zm0,5.26c-2.95.69-5.81,1.33-8.65,2.03-.96.23-1.92.51-2.81.93-1.57.74-2.49,1.99-2.38,3.8.12,1.87,1.1,3.26,2.85,3.87,1.03.36,2.23.5,3.32.39,3.01-.3,5.57-1.52,6.87-4.44.93-2.08.87-4.33.8-6.57Z" stroke-width="0"/>
        <path d="m150.08,36.47c.4,1.6.58,3.07,1.13,4.39,2.04,4.91,7.68,6.55,12.27,3.53,1.56-1.02,2.93-2.35,4.34-3.58,1.15-1,2.82-1.23,4.02-.45,1.05.68,1.41,2.04.89,3.53-.83,2.37-2.51,4.06-4.65,5.19-6.25,3.3-12.62,3.3-18.86.07-3.54-1.83-5.65-5.01-6.69-8.84-1.12-4.13-1.1-8.29.18-12.39,2.04-6.53,7.5-10.46,14.49-10.6,4.46-.09,8.56.84,11.87,4,3.23,3.09,4.71,6.93,4.28,11.42-.16,1.66-1.04,2.8-2.67,3.19-1.16.28-2.37.5-3.56.51-5.18.05-10.37.02-15.55.02h-1.49Zm15.12-4.88c.31-4.37-2.66-8.09-6.61-8.35-4.7-.3-7.92,2.94-8.19,8.35h14.8Z" stroke-width="0"/>
        <path d="m145.99,62.5v3.2c1.61,0,3.16,0,4.71,0,.35,0,.79-.1,1.04.06.38.25.87.72.86,1.07-.02.33-.61.89-.98.92-1.52.11-3.05.05-4.58.05-.32,0-.63,0-1.03,0v3.66c.34.02.71.06,1.08.06,1.7.01,3.41,0,5.11.03.72.01,1.27.33,1.23,1.15-.04.74-.55,1.05-1.23,1.05-2.52,0-5.04.01-7.56-.02-.93-.01-1.42-.52-1.42-1.49,0-3.44,0-6.89,0-10.33,0-1.03.53-1.52,1.5-1.53,2.41-.02,4.83-.02,7.24,0,.73,0,1.28.31,1.25,1.12-.02.76-.56,1-1.25,1-1.95,0-3.9,0-5.99,0Z" stroke-width="0"/>
        <path d="m148.33,79.73c.89-.03,1.51.4,1.83,1.19,1.44,3.54,2.86,7.09,4.27,10.64.32.8.15,1.49-.7,1.85-.88.37-1.41-.1-1.75-.88-.04-.1-.12-.19-.14-.29-.27-1.92-1.47-2.42-3.21-2.12-.1.02-.22.02-.32,0-1.9-.35-3.16.2-3.52,2.28-.14.8-.69,1.34-1.64,1.03-.83-.27-1.13-.99-.74-2,1.33-3.47,2.69-6.92,4.06-10.38.32-.81.88-1.37,1.84-1.34Zm1.95,8.29c-.65-1.76-1.25-3.41-1.95-5.3-.69,1.95-1.27,3.6-1.88,5.3h3.82Z" stroke-width="0"/>
        <path d="m161.96,72.58c-.18.15-.34.29-.49.42-2.07,1.72-4.9,1.13-6.06-1.3-.78-1.64-.86-3.35-.29-5.07.89-2.68,3.91-3.64,6.22-2.02.19.14.38.28.79.58,0-1.34-.09-2.46.04-3.56.06-.5.42-1.17.84-1.39.77-.4,1.45.27,1.46,1.36.02,3.19,0,6.38,0,9.57,0,.46,0,.92,0,1.38,0,.7-.21,1.3-1,1.4-.76.09-1.19-.33-1.33-1.06-.02-.09-.1-.18-.18-.31Zm-4.63-3.7c0,1.85.94,3.14,2.31,3.14,1.37,0,2.35-1.3,2.34-3.12,0-1.84-.95-3.09-2.34-3.12-1.39-.02-2.31,1.21-2.31,3.1Z" stroke-width="0"/>
        <path d="m176.5,84.76c1.27-1.17,2.48-1.6,3.92-1.25,1.32.32,2.18,1.18,2.27,2.5.13,2.12.1,4.26.07,6.39,0,.75-.53,1.16-1.28,1.14-.7-.03-1.12-.45-1.14-1.16-.03-1.53-.03-3.05-.04-4.58-.02-1.67-.51-2.39-1.62-2.4-1.25,0-2.1.9-2.16,2.41-.05,1.24-.02,2.49-.02,3.73,0,.28.01.57-.03.85-.11.72-.52,1.17-1.28,1.16-.78-.01-1.19-.51-1.19-1.23-.02-3.76-.02-7.53,0-11.29,0-.76.39-1.29,1.25-1.27.85.01,1.21.54,1.24,1.3.04,1.16.01,2.32.01,3.72Z" stroke-width="0"/>
        <path d="m195.49,72.89c-1.34.4-2.49.92-3.68,1.04-1.74.18-3.04-.91-3.23-2.41-.21-1.57.68-2.69,2.5-3.12,1.03-.24,2.08-.43,3.1-.71.33-.09.89-.55.85-.64-.19-.48-.45-1.1-.86-1.3-1.03-.49-2.37-.04-3,.91-.46.69-.98,1.27-1.79.61-.75-.61-.4-1.4.07-1.99,1.05-1.35,2.61-1.43,4.15-1.47.39-.01.78.07,1.16.12,1.85.25,2.68,1.11,2.83,2.99.16,1.93.33,3.87.4,5.8.01.36-.31.91-.63,1.06-.32.15-.87,0-1.23-.18-.32-.16-.52-.56-.64-.71Zm-.44-3.81c-1,.23-1.94.42-2.86.67-.66.18-1.22.59-1.1,1.35.13.8.7,1.18,1.53,1.18,1.69,0,2.57-1.09,2.43-3.2Z" stroke-width="0"/>
        <path d="m194.45,88.49c0,3.1-1.92,5.06-4.92,5.06-2.94,0-4.93-2.08-4.92-5.11.01-3.05,2-5.06,4.97-5.04,3.01.02,4.88,1.97,4.87,5.1Zm-7.27,0c0,.21-.02.43,0,.64.17,1.54,1.11,2.52,2.39,2.51,1.26,0,2.12-.92,2.32-2.45.03-.21.06-.42.06-.63.05-1.94-.94-3.28-2.42-3.27-1.45,0-2.37,1.25-2.35,3.2Z" stroke-width="0"/>
        <path d="m220.43,68.97c-.03,3.06-1.99,5.02-5,5-2.95-.02-4.89-2.08-4.86-5.15.04-3.09,1.96-5,5-4.98,2.99.03,4.88,2.02,4.86,5.12Zm-7.3.15c0,.07,0,.36.04.64.2,1.38,1.06,2.26,2.24,2.29,1.25.04,2.18-.81,2.41-2.22.05-.31.06-.64.06-.95,0-1.94-.95-3.18-2.4-3.17-1.46.01-2.36,1.24-2.35,3.42Z" stroke-width="0"/>
        <path d="m162.7,92.37c-1,.4-1.86.92-2.8,1.09-1.98.37-3.53-.89-3.61-2.9-.08-1.95-.03-3.9-.02-5.85,0-.74.37-1.24,1.13-1.3.81-.07,1.28.41,1.36,1.18.07.74.03,1.49.03,2.23,0,.85-.02,1.7.01,2.55.05,1.42.57,2.11,1.55,2.15,1.13.05,2.06-.83,2.16-2.15.09-1.27.08-2.55.12-3.82,0-.32,0-.64,0-.96.03-.71.43-1.14,1.11-1.19.74-.05,1.27.33,1.28,1.1.04,2.62.06,5.24-.02,7.86-.01.4-.61,1.05-.99,1.09-.38.04-.82-.54-1.22-.88-.09-.08-.11-.25-.09-.21Z" stroke-width="0"/>
        <path d="m173.24,72.44c-.99,1.11-2.12,1.59-3.49,1.5-1.62-.12-2.76-1.14-2.83-2.76-.08-2.02-.03-4.05-.03-6.07,0-.75.36-1.22,1.15-1.24.76-.03,1.24.37,1.27,1.13.06,1.24.04,2.48.06,3.72,0,.46,0,.92.05,1.38.13,1.3.64,1.88,1.59,1.88,1.02,0,1.99-.84,2.06-1.92.08-1.34.04-2.7.06-4.04,0-.35.01-.71.07-1.06.13-.73.56-1.14,1.33-1.09.79.05,1.11.56,1.12,1.29.01,1.38,0,2.77,0,4.15,0,.99-.01,1.99,0,2.98.01.76-.05,1.5-.95,1.65-.97.16-1.29-.53-1.47-1.5Z" stroke-width="0"/>
        <path d="m182.77,73.94c-2.63,0-4.26-1.08-4.89-3.05-.75-2.35,0-5.04,1.73-6.24,1.71-1.18,4.49-1.13,6.08.2.46.39.89.96,1.04,1.53.1.37-.2,1.06-.54,1.28-.26.17-.85-.14-1.29-.28-.11-.03-.19-.2-.27-.32-.65-.98-1.51-1.51-2.7-1.17-1.2.34-1.64,1.31-1.74,2.42-.06.65.02,1.35.17,1.99.22.93.86,1.54,1.82,1.72.97.18,1.73-.22,2.31-.99.15-.2.26-.42.41-.62.36-.48.78-.86,1.44-.52.71.37.76,1,.5,1.65-.59,1.48-1.84,2.08-3.31,2.34-.35.06-.7.07-.76.07Z" stroke-width="0"/>
        <path d="m167.64,85.76c-.38-.39-1.08-.8-1.06-1.16.03-.45.66-.87,1.03-1.3l.22.15c.04-.74.08-1.48.12-2.22.04-.71.41-1.14,1.12-1.17.74-.03,1.22.35,1.28,1.12.07.77.09,1.54.38,2.09.56.41,1.54.79,1.59,1.25.11,1.1-1.06.81-1.86,1.06,0,1.7-.02,3.43,0,5.15,0,.62.41.87,1.01.78.21-.03.45-.13.63-.06.35.13.93.32.95.54.04.36-.18.97-.46,1.12-1.19.59-2.52.72-3.66-.01-.5-.32-.9-1.14-.94-1.76-.12-1.87-.04-3.75-.04-5.63-.11.02-.22.03-.33.05Z" stroke-width="0"/>
        <path d="m209.94,83.39c0-.71,0-1.42,0-2.12.01-.71.39-1.15,1.09-1.2.73-.05,1.24.29,1.31,1.07.07.77.09,1.54.13,2.37.74.19,1.91-.16,1.88,1.04-.02,1.12-1.17.73-1.92,1.06,0,1.66-.02,3.35,0,5.05.01.64.39.96,1.06.86.18-.03.38-.12.52-.06.38.15.74.37,1.1.56-.21.4-.38,1.11-.64,1.14-1.13.14-2.31.24-3.41.04-.88-.16-1.12-1.11-1.13-1.97-.02-1.49-.02-2.98-.02-4.47,0-.39,0-.77,0-1.16-.09.06-.18.12-.26.18-.4-.41-1.1-.82-1.1-1.22,0-.42.7-.83,1.09-1.25.1.03.19.06.29.09Z" stroke-width="0"/>
        <path d="m199.73,66.15c-.37-.38-1.01-.75-1.03-1.14-.01-.39.6-.81.94-1.21l.36.17c0-.7-.04-1.39,0-2.09.05-.77.34-1.4,1.27-1.37.9.03,1.21.6,1.22,1.41,0,.67,0,1.34,0,1.97.71.38,1.95-.23,1.92,1.07-.03,1.2-1.12.76-1.89.97,0,1.7-.03,3.42.01,5.15.02.77.5,1.02,1.25.83.61-.15,1.28-.24,1.45.59.17.81-.42,1.15-1.1,1.27-.55.1-1.12.19-1.68.17-1.54-.05-2.27-.63-2.36-2.15-.12-1.9-.03-3.82-.03-5.73-.12.02-.23.05-.35.07Z" stroke-width="0"/>
        <path d="m199.11,84.3c1.09-1.04,2.2-1.29,3.36-.45.36.26.66.95.6,1.38-.09.65-.72.75-1.36.6-1.9-.44-2.42-.12-2.69,1.84-.16,1.19-.1,2.4-.14,3.6-.01.35.01.71-.03,1.06-.09.72-.5,1.19-1.25,1.19-.76,0-1.2-.52-1.21-1.22-.04-2.55-.06-5.1.04-7.64.02-.43.63-1.12,1.04-1.18.45-.06.98.47,1.65.83Z" stroke-width="0"/>
        <path d="m208.68,68.9c0,1.17.02,2.34,0,3.51-.02.81-.29,1.49-1.25,1.55-.78.05-1.28-.56-1.29-1.61-.02-2.3-.01-4.61,0-6.91,0-.81.21-1.51,1.19-1.58.83-.06,1.33.48,1.36,1.53.03,1.17,0,2.34,0,3.51,0,0,0,0,0,0Z" stroke-width="0"/>
        <path d="m206.98,88.5c0,1.17,0,2.34,0,3.51,0,.86-.34,1.5-1.27,1.5-.88,0-1.23-.64-1.24-1.43-.02-2.41-.02-4.82,0-7.24,0-.79.33-1.44,1.22-1.44.93,0,1.29.6,1.29,1.48,0,1.21,0,2.41,0,3.62Z" stroke-width="0"/>
        <path d="m205.75,79.84c.79.06,1.26.44,1.23,1.27-.03.76-.46,1.15-1.2,1.17-.81.02-1.28-.4-1.29-1.19,0-.79.49-1.19,1.26-1.25Z" stroke-width="0"/>
        <path d="m207.57,62.71c-.88,0-1.38-.35-1.41-1.12-.03-.79.39-1.27,1.22-1.29.83-.03,1.29.41,1.28,1.22,0,.75-.46,1.16-1.09,1.19Z" stroke-width="0"/>
      </g>
    </g>
  </g>
</svg>