<?xml version="1.0" encoding="UTF-8"?>
<svg id="b" data-name="Layer 2" xmlns="http://www.w3.org/2000/svg" viewBox="0 0 300 100">
  <g id="c" data-name="Layer 1">
    <g>
      <g>
        <path d="m148.54,62.07l-.15.04v.5h6.72v-21.98h-6.72v.5l.14.05c.84.27,1.28,1.69,1.28,4.1v12.69c0,2.44-.44,3.86-1.27,4.1h0Z" stroke-width="0"/>
        <path d="m163.97,47.15l.08.21.43-.22-.28-6.4h-7.78v.62l1.39.15c1.46.18,2.68.72,3.64,1.61.97.9,1.81,2.26,2.5,4.03h0Z" stroke-width="0"/>
        <path d="m156.43,62.61h8.63l.67-6.32.02-.14-.43-.21-.09.18c-.79,1.6-1.81,2.94-3.05,3.99-1.23,1.04-2.49,1.61-3.75,1.7l-2,.18v.62Z" stroke-width="0"/>
        <path d="m179.99,53.8l-.57,1.31,6.51.14,1,2.7c.24.64.4,1.22.47,1.72.07.48.06.88-.03,1.2-.08.3-.22.55-.4.73-.18.18-.42.31-.71.4l-.2.06v.64h9.62v-.63l-.2-.06c-.29-.08-.54-.23-.75-.43-.16-.14-.43-.48-.87-1.28-.36-.66-.78-1.6-1.26-2.81l-6.54-16.74-.07-.18h-2.93l-1.39,3.39,3.78,9.72-5.47.14h0Z" stroke-width="0"/>
        <path d="m166.14,52.92c1.08,0,2.02-.01,2.63-.03.29,0,.53,0,.72-.02l3.46,9.85h6.83v-.69l-.22-.07c-.26-.08-.86-.53-1.83-2.61l-2.63-5.47-.08-.12-.12-.03c-1.36-.34-2.55-.69-3.57-1.04,1.74-.29,3.17-.87,4.25-1.72,1.33-1.05,2.01-2.41,2.01-4.04,0-1.91-.8-3.45-2.39-4.58-1.55-1.11-3.85-1.67-6.83-1.68h-.32v.83l.28.03c1.16.12,2.06.63,2.68,1.5.64.89.96,2.21.96,3.91,0,1.08-.14,2.01-.42,2.73-.7,1.5-2.33,2.38-4.39,2.35h-1.02l-1.41-.03c-1.14-.03-2.03-.26-2.64-.68-.6-.42-1.05-1.05-1.33-1.87l-.08-.23h-.73v6.98h.74l.07-.24c.28-.95.73-1.68,1.35-2.19.61-.5,1.49-.76,2.61-.79l1.38-.03h.03,0Z" stroke-width="0"/>
        <path d="m256.01,60.2c-.56-1.29-.84-3.34-.83-6.11l.04-8.42c0-1.32.13-2.32.37-2.96.22-.6.55-.97.96-1.09l.14-.05v-.49l-7.8-.03h-.2v.49l.14.05c.81.27,1.23,1.68,1.22,4.06l-.04,8.42c-.02,5.6,2.88,8.63,8.63,9h.22s0-.6,0-.6l-.16-.03c-1.23-.24-2.13-.99-2.68-2.24Z" stroke-width="0"/>
        <path d="m269.06,41.63v-.42l-5.76-.03h-.17v.42s.14.02.14.02c.57.09,1.12.6,1.65,1.5.54.93.81,2.1.81,3.48l-.03,7.3c-.01,2.42-.49,4.41-1.44,5.92-.94,1.5-2.23,2.39-3.86,2.65l-.13.02v.56s.19-.02.19-.02c1.89-.26,3.42-1.23,4.53-2.86,1.11-1.62,1.68-3.73,1.69-6.26l.03-7.3c0-1.37.27-2.54.79-3.47.49-.9.99-1.42,1.44-1.49l.13-.02h0Z" stroke-width="0"/>
        <path d="m288.3,50.83c-.58.41-1.42.62-2.51.64l-1.24.03v1.01s1.24.05,1.24.05c1.07.03,1.9.29,2.47.77.58.49,1.01,1.2,1.27,2.12l.09.29h.85l.03-6.61v-.38h-.84s-.09.28-.09.28c-.27.79-.69,1.39-1.26,1.79h0Z" stroke-width="0"/>
        <path d="m293.28,56.43c-.76,1.56-1.75,2.86-2.94,3.88-1.17,1-2.37,1.54-3.56,1.63l-2.36.18v.94s8.98.04,8.98.04l.72-6.65-.68-.35-.17.34h0Z" stroke-width="0"/>
        <path d="m33.12,50.9c-.57.54-1.29.69-1.68.77-.47.09-.83.1-.84.1l-2.66.15.79.84,3.13-.03,3.47,9.53.07.18h6.94v-.64l-.2-.06c-.28-.08-.9-.53-1.91-2.6l-2.7-5.42-.07-.1-.1-.02c-1.45-.34-2.72-.7-3.79-1.08,1.84-.28,3.34-.86,4.47-1.71,1.36-1.03,2.05-2.37,2.05-3.98,0-1.88-.82-3.4-2.44-4.52-1.59-1.09-3.94-1.65-6.99-1.66h-.28v.77l.25.02c1.2.12,2.14.63,2.79,1.5.66.89.99,2.2.99,3.88s-.34,2.9-1.01,3.73c-.09.11-.19.22-.29.32h0Z" stroke-width="0"/>
        <path d="m59.98,42.7c.64.66,1.67,1.91,3.07,3.72l12.32,15.88.06.08h1.77v-6.28l-11.95-15.29-.05-.06h-7.23v.48l.12.06c.63.29,1.27.77,1.89,1.41Z" stroke-width="0"/>
        <path d="m74.91,42.07c.37.33.67.85.9,1.54.24.7.37,1.62.4,2.72l.2,6.61v.05l.64.86.09-7.52c.01-1.59.23-2.77.66-3.52.42-.73,1.03-1.24,1.82-1.51l.14-.05v-.5h-6.46v.5l.15.05c.6.18,1.08.44,1.45.77h0Z" stroke-width="0"/>
        <path d="m91.41,59.44c2.28-1.87,3.43-4.51,3.43-7.87s-1.17-6.03-3.47-7.92c-2.29-1.87-5.59-2.85-9.82-2.91h-.21v.64h.21c.91.01,1.76.13,2.51.35.75.22,1.46.58,2.11,1.08.65.5,1.21,1.14,1.65,1.9.45.77.81,1.74,1.07,2.89.26,1.16.39,2.49.39,3.97,0,3.31-.65,5.85-1.94,7.53-1.28,1.67-3.23,2.57-5.8,2.66h-.2v.62h.21c4.28-.1,7.6-1.09,9.86-2.95h0Z" stroke-width="0"/>
        <path d="m20.06,42.9c.99,1.05,1.93,2.63,2.81,4.69l.42,1-.17-6.5v-.11l-.1-.06c-.45-.27-1.31-.54-2.54-.82-1.23-.27-2.49-.44-3.73-.5h-.22s0,.42,0,.42l.18.03c1.24.19,2.36.81,3.34,1.86Z" stroke-width="0"/>
        <path d="m19.14,53.62c.38.64.58,1.67.58,3.08,0,1.68-.25,2.96-.75,3.82-.48.82-1.24,1.35-2.25,1.57l-.16.03v.4l.22-.02c1-.08,1.97-.25,2.9-.5.93-.25,1.67-.52,2.23-.82l2.84,1.27-.09-.4c-.14-.65-.24-1.31-.29-1.96-.05-.68-.08-1.83-.08-3.4,0-2.37.39-3.72,1.18-4.11l.78-.39h-9.98l1.5.41c.6.16,1.06.51,1.38,1.03h0Z" stroke-width="0"/>
        <path d="m8.98,61.1c1.61.88,3.46,1.35,5.5,1.41l.2-.02v-.38l-.19-.02c-1.65-.14-2.98-1.12-3.95-2.91-1-1.84-1.51-4.4-1.51-7.61s.51-5.58,1.51-7.43c.98-1.8,2.31-2.85,3.97-3.1l.18-.03v-.44h-.22c-2.04.15-3.88.67-5.49,1.56-1.64.91-2.94,2.19-3.89,3.82-.95,1.63-1.42,3.52-1.42,5.61s.48,4.05,1.42,5.7c.95,1.65,2.26,2.93,3.9,3.83h0Z" stroke-width="0"/>
        <path d="m49.55,57.76c.24.64.4,1.21.47,1.71.07.48.06.89-.03,1.2-.09.31-.23.56-.42.75s-.44.33-.74.41l-.15.04v.5h15.74v-.5l-.15-.05c-.85-.26-1.49-.76-1.91-1.48-.43-.74-.67-1.94-.7-3.55l-.2-10.04v-.05l-.64-.9-.14,10.98c-.02,1.09-.15,2.01-.38,2.73-.23.7-.52,1.22-.85,1.55-.34.32-.77.58-1.29.76l-.07.02-.09-.03c-.29-.09-.56-.23-.78-.44-.23-.21-.52-.64-.88-1.28-.36-.65-.79-1.58-1.26-2.77l-6.54-16.46-.05-.13h-2.82l-1.36,3.26,3.82,9.92-5.66.14-.46.93,6.56.14.99,2.61h0Z" stroke-width="0"/>
        <path d="m126.99,47.08c-.52-1.35-1.24-2.51-2.16-3.46-.92-.95-2.02-1.71-3.28-2.28-1.26-.57-2.66-.91-4.17-1.03l-.22-.02v.59l.17.03c1.49.26,2.69,1.29,3.56,3.09.89,1.82,1.34,4.35,1.34,7.52s-.45,5.68-1.34,7.52c-.87,1.8-2.07,2.86-3.56,3.14l-.17.03v.59l.22-.02c1.49-.12,2.89-.47,4.16-1.04,1.27-.57,2.38-1.34,3.29-2.29s1.64-2.12,2.16-3.48c.51-1.35.77-2.85.77-4.45s-.26-3.09-.77-4.44h0Z" stroke-width="0"/>
        <path d="m109.9,61.14c1.56.93,3.37,1.48,5.38,1.64l.22.02v-.59l-.17-.03c-1.5-.27-2.7-1.33-3.57-3.13-.89-1.83-1.34-4.37-1.34-7.52s.45-5.7,1.33-7.52c.86-1.79,2.05-2.83,3.52-3.09l.17-.03v-.59l-.22.02c-1.49.12-2.89.46-4.15,1.03-1.26.57-2.36,1.33-3.28,2.28-.91.95-1.64,2.11-2.15,3.46-.51,1.35-.77,2.84-.77,4.44,0,2.14.45,4.06,1.34,5.71.89,1.66,2.14,2.97,3.7,3.91h0Z" stroke-width="0"/>
        <path d="m136.53,60.89c-.26-.71-.39-1.93-.39-3.61v-16.62h-6.72v.5l.14.05c.84.27,1.28,1.69,1.28,4.1v12.69c0,2.44-.44,3.86-1.27,4.1l-.15.04v.5h8.44v-.51l-.16-.04c-.53-.13-.93-.53-1.17-1.2h0Z" stroke-width="0"/>
        <path d="m139.9,53.63c-.56.43-1.29.68-2.16.75h-.19v.64h.21c3.05-.01,5.42-.67,7.05-1.95,1.6-1.26,2.43-3.03,2.48-5.28-.05-2.24-.88-4.01-2.48-5.27-1.64-1.29-4.01-1.94-7.05-1.95h-.21v.62h.19c.87.08,1.6.33,2.16.76.56.43,1.01,1.15,1.34,2.13.32.96.48,2.21.49,3.71-.01,1.51-.18,2.76-.49,3.71-.32.98-.77,1.7-1.34,2.13Z" stroke-width="0"/>
        <path d="m231.9,41.95c-1.23.56-2.31,1.31-3.2,2.24-.89.93-1.6,2.08-2.11,3.41-.5,1.33-.77,2.81-.77,4.39,0,2.11.42,4.02,1.28,5.65.86,1.64,2.07,2.95,3.59,3.88,1.52.93,3.28,1.48,5.24,1.65l.22.02v-.59l-.16-.03c-1.46-.28-2.62-1.32-3.47-3.11-.86-1.82-1.29-4.32-1.27-7.45.01-3.13.46-5.63,1.33-7.44.85-1.77,2-2.79,3.43-3.04l.17-.03v-.59l-.22.02c-1.46.11-2.82.45-4.05,1h0Z" stroke-width="0"/>
        <path d="m247.41,47.69c-.49-1.34-1.2-2.49-2.09-3.44-.89-.94-1.96-1.7-3.19-2.27-1.23-.57-2.59-.92-4.06-1.04l-.22-.02v.59l.17.03c1.45.26,2.61,1.29,3.45,3.06.86,1.81,1.29,4.31,1.27,7.45-.01,3.11-.46,5.61-1.34,7.43-.86,1.78-2.03,2.82-3.48,3.09l-.17.03v.59l.22-.02c1.46-.11,2.82-.45,4.06-1.01,1.24-.56,2.32-1.32,3.22-2.26.9-.94,1.61-2.09,2.12-3.43.5-1.34.77-2.82.77-4.4,0-1.58-.24-3.06-.73-4.4h0Z" stroke-width="0"/>
        <path d="m204.26,41.05v.49l.14.05c.81.27,1.23,1.68,1.23,4.06l-.05,12.55c-.01,2.41-.44,3.81-1.26,4.05l-.14.04v.5l7.8.03h.2v-.5l-.15-.04c-.85-.24-1.3-1.64-1.29-4.06l.05-12.55c0-1.32.13-2.32.36-2.97.21-.6.53-.96.94-1.08l.14-.04v-.5l-7.78-.03h-.2,0Z" stroke-width="0"/>
        <path d="m217.21,41.05v.49l.14.05c.84.27,1.28,1.68,1.27,4.06l-.02,5.28-5.48.15-.18.05v.09l-.4.65,6.07.13-.03,6.2c-.01,2.41-.46,3.81-1.3,4.05l-.15.04v.5l7.8.03h.2v-.5l-.15-.04c-.84-.25-1.27-1.65-1.26-4.06l.05-12.55c.01-2.38.45-3.79,1.27-4.05l.14-.05v-.49l-7.77-.03h-.2,0Z" stroke-width="0"/>
        <path d="m293.05,47.58l.14.39.69-.35-.25-6.6-5.06-.02h-8.85s-.38-.01-.38-.01v1.12h7.53c.4.02,1.01.07,1.6.25.84.27,1.58.7,2.2,1.29.92.88,1.73,2.2,2.38,3.94h0Z" stroke-width="0"/>
        <path d="m282.38,53.25c-.43-.48-.94-.94-1.49-1.35-.55-.41-1.15-.79-1.76-1.11-.6-.32-1.22-.64-1.84-.95-.61-.31-1.19-.63-1.73-.95-.53-.32-1.02-.67-1.43-1.04-.4-.36-.73-.78-.97-1.27-.24-.48-.36-1.02-.35-1.59,0-.58.13-1.12.37-1.59.51-.92,1.55-1.35,2.12-1.52l.11-.03v-.67l-.22.02c-1.96.16-3.57.82-4.81,1.97-1.24,1.16-1.87,2.59-1.88,4.27,0,.77.12,1.5.36,2.16.25.66.58,1.23,1,1.7.41.46.89.9,1.43,1.3.53.4,1.1.76,1.69,1.08.59.31,1.18.63,1.76.93.58.3,1.14.62,1.65.95.51.33.97.68,1.37,1.05.39.36.7.79.92,1.27.22.48.34,1.02.33,1.6,0,.59-.13,1.13-.36,1.6-.93,1.57-3.39,2.09-5.59,1.18-1.65-.77-2.64-2-2.68-2.05l-.19-.23-.32.56.09.11c.4.47,2.55,2.82,5.75,2.82.17,0,.36,0,.56-.02h.02c2.29-.15,4.11-.75,5.42-1.78,1.39-1.1,2.11-2.55,2.11-4.31,0-.82-.13-1.59-.38-2.29s-.61-1.29-1.06-1.79h0Z" stroke-width="0"/>
      </g>
      <rect width="300" height="100" fill="none" stroke-width="0"/>
    </g>
  </g>
</svg>