<?xml version="1.0" encoding="UTF-8"?>
<svg id="b" data-name="Layer 2" xmlns="http://www.w3.org/2000/svg" viewBox="0 0 300 100">
  <g id="c" data-name="Layer 1">
    <g>
      <path d="m51.51,71.68h7.53v8.28h13.46v-8.28h7.44v23.25h-7.44v-9.79h-13.56v9.7h-7.44v-23.16h0Zm29.28,0h7.34l7.72,8.94,7.63-8.94h7.25l-11.2,14.21v9.04h-7.44v-9.7l-11.3-13.56h0Zm30.88,0h7.44v17.98h11.96c1.88,0,3.11-1.88,3.11-3.86v-14.12h7.44v18.55c0,2.92-3.29,4.61-5.18,4.61h-24.76v-23.16h0Zm31.54,0h24.76c2.92,0,5.27,1.79,5.27,5.41v17.79l-7.44.05v-14.12c0-1.97-.66-3.15-3.2-3.15h-11.2v17.32h-8.19v-23.3Zm32.3,0h21.65c4.33,0,7.68,3.48,7.68,6.16v10.69c-.05,1.88-2.68,6.4-5.98,6.4h-23.35v-23.25h0,0Zm7.58,18.08h11.43c1.65,0,2.92-1.22,2.92-2.73v-6.78c0-1.65-1.35-2.63-3.09-2.63h-11.25v12.14h0Zm30.93-18.17h23.21v23.35h-8.29v-6.02h-14.26v6.02h-8.38v-15.16c-.19-5.08,4.33-8.19,7.72-8.19h0Zm.56,8.29v3.76h14.31v-5.93h-12.05c-1.41,0-2.26.85-2.26,2.17Zm24.15-8.24h7.44v24h-7.44v-24ZM149.29,4.36c-30.86,0-55.88,12.35-55.88,27.59s25.02,27.59,55.88,27.59,55.88-12.35,55.88-27.59c0-15.23-25.02-27.59-55.88-27.59h0Zm-5.3,6.14c6.38-2.26,25.33,0,32.69,3.54,2.36,2.26-10.5,9.52-25.82,12.67-21.89,4.41-11.49-12.47-6.87-16.2Zm-37.6,32.69c-4.81-3.43-14.24-13.25,1.37-23.46,8.25-4.81,12.86-5.89,18.55-7.07,2.75-.59,4.71.1,2.26,2.16-5.2,5.4-16,23.26-16.98,27.19-.79,2.65-2.36,3.34-5.2,1.18h0Zm44.96,11.39c-9.23.98-29.74-2.06-30.14-4.71.39-6.39,32.59-16.99,38.38-11.1,2.46,4.61-2.26,15.51-8.25,15.81Zm46.93-18.56c-2.36,5.4-10.31,11.49-26.99,15.61-2.56.58-3.44-.98-1.77-2.46,2.75-1.67,16-23.85,17.67-28.27.98-2.26,2.85-1.37,4.03-.49,5.3,3.43,9.33,9.03,7.07,15.61h0Z" fill-rule="evenodd" stroke-width="0"/>
      <rect width="300" height="100" fill="none" stroke-width="0"/>
    </g>
  </g>
</svg>