<?xml version="1.0" encoding="UTF-8"?>
<svg id="b" data-name="Layer 2" xmlns="http://www.w3.org/2000/svg" viewBox="0 0 300 100">
  <g id="c" data-name="Layer 1">
    <g>
      <path d="m81.79,97.57c0-31.09,0-62.17.04-93.26,0-.46-.74-1.57.69-1.45.33.14.65.31.99.4,39.52,11.29,79.03,22.58,118.55,33.85,4.41,1.26,8.85,2.42,13.28,3.63v56.83c-.54.02-1.09.06-1.63.06-43.43,0-86.86,0-130.28,0-.54,0-1.09-.04-1.63-.06Zm73.2-28.28c.35-.2.55-.33.77-.44,4.63-2.4,6.83-7.25,5.62-12.4-1.14-4.85-5.28-8-10.54-8-2.42,0-4.85,0-7.27,0-2.72,0-3.55.85-3.55,3.59,0,10.01,0,20.02,0,30.03,0,.42-.03.85.03,1.27.21,1.55,1.27,2.19,2.68,2.16,1.34-.03,2.32-.7,2.42-2.19.05-.66.03-1.33.03-2,0-3.8,0-7.6,0-11.36,3.87-.71,4.05-.63,5.59,2.6,1.74,3.66,3.43,7.36,5.25,10.98.39.78,1.21,1.67,1.98,1.84.78.18,2.14-.22,2.52-.82.48-.76.59-2.14.23-2.98-1.78-4.11-3.78-8.12-5.75-12.28Zm26.45-2.47h0v3.64c0,1.46,0,2.91,0,4.37,0,4.71,2.14,8.29,6.12,9.82,4.49,1.72,8.7,1.09,12.37-2.13,1.83-1.61,2.72-3.7,2.66-6.14-.04-1.41-.65-2.46-2.21-2.64-1.48-.17-2.45.46-2.89,1.89-.09.29-.17.58-.26.87-.93,2.86-3.24,4.32-6.14,3.88-2.84-.43-4.48-2.41-4.48-5.46-.01-5.4-.01-10.8,0-16.2,0-3.04,1.51-4.88,4.34-5.36,2.94-.51,5.28.87,6.25,3.69.16.46.15,1.1.47,1.35.78.63,1.66,1.42,2.58,1.53,1.26.16,2.14-.81,2.3-2.1.1-.82.02-1.71-.17-2.52-1.05-4.5-6.09-7.69-11.28-7.2-5.38.51-9.45,4.45-9.61,9.42-.1,3.09-.02,6.19-.02,9.28Zm-58.21-3.16c-2-4.83-3.79-9.19-5.62-13.54-.77-1.82-2.01-2.4-3.58-1.79-1.51.59-2,1.95-1.26,3.78.88,2.19,1.71,4.41,2.75,6.52,3.68,7.55,6.25,15.29,5.19,23.89-.24,1.98.85,3,2.54,3.01,1.64,0,2.56-1.06,2.57-3.03.02-3.27-.05-6.55.03-9.82.03-1.05.25-2.16.64-3.14,2.24-5.55,4.57-11.07,6.85-16.61.27-.66.55-1.37.62-2.07.12-1.29-.44-2.22-1.76-2.6-1.27-.37-2.29-.01-2.97,1.1-.37.61-.61,1.32-.89,1.99-1.65,3.95-3.29,7.9-5.13,12.32Zm-24.33,16.72c0-.93,0-1.59,0-2.25,0-8.8,0-17.59,0-26.39,0-2.31-.86-3.39-2.62-3.35-1.68.04-2.52,1.09-2.53,3.29-.01,10.19-.02,20.38,0,30.57,0,2.36.95,3.27,3.33,3.28,4.24.02,8.48.01,12.73,0,2.26,0,3.38-.92,3.33-2.67-.05-1.68-1.08-2.47-3.3-2.48-3.56-.01-7.13,0-10.94,0Zm75.14-13.41c0-5.33.02-10.66,0-15.99,0-1.84-.97-2.87-2.54-2.89-1.68-.01-2.65,1.18-2.66,3.4-.02,10.24-.02,20.48,0,30.71,0,2.21.99,3.36,2.72,3.31,1.69-.04,2.48-1.07,2.48-3.29,0-5.09,0-10.18,0-15.27Z" stroke-width="0"/>
      <path d="m154.98,69.3c1.97,4.16,3.97,8.18,5.75,12.28.36.84.25,2.22-.23,2.98-.38.6-1.75,1-2.52.82-.77-.18-1.58-1.06-1.98-1.84-1.83-3.62-3.51-7.31-5.25-10.98-1.54-3.23-1.72-3.31-5.59-2.6,0,3.76,0,7.56,0,11.36,0,.67.02,1.34-.03,2-.1,1.49-1.09,2.16-2.42,2.19-1.41.03-2.46-.61-2.68-2.16-.06-.42-.03-.85-.03-1.27,0-10.01,0-20.02,0-30.03,0-2.75.83-3.59,3.55-3.59,2.42,0,4.85,0,7.27,0,5.26,0,9.4,3.15,10.54,8,1.21,5.14-.99,10-5.62,12.4-.21.11-.42.24-.77.44Zm-9.65-15.74v10.92c2.05,0,3.98.02,5.91,0,3.09-.03,5.08-2,5.19-5.1.12-3.27-1.84-5.63-4.95-5.8-1.99-.11-3.99-.02-6.15-.02Z" fill="#fff" stroke-width="0"/>
      <path d="m181.44,66.82c0-3.1-.08-6.19.02-9.28.16-4.97,4.24-8.91,9.61-9.42,5.19-.49,10.23,2.7,11.28,7.2.19.81.27,1.69.17,2.52-.15,1.29-1.03,2.26-2.3,2.1-.92-.11-1.8-.9-2.58-1.53-.31-.25-.31-.89-.47-1.35-.97-2.82-3.3-4.2-6.25-3.69-2.83.49-4.33,2.33-4.34,5.36-.01,5.4-.01,10.8,0,16.2,0,3.05,1.64,5.03,4.48,5.46,2.9.44,5.21-1.02,6.14-3.88.09-.29.17-.58.26-.87.44-1.43,1.41-2.06,2.89-1.89,1.57.18,2.17,1.23,2.21,2.64.06,2.44-.82,4.53-2.66,6.14-3.68,3.22-7.88,3.85-12.37,2.13-3.98-1.53-6.11-5.11-6.12-9.82,0-1.46,0-2.91,0-4.37v-3.64h0Z" fill="#fff" stroke-width="0"/>
      <path d="m174.03,66.98c0,5.09,0,10.18,0,15.27,0,2.22-.79,3.25-2.48,3.29-1.73.04-2.72-1.1-2.72-3.31-.02-10.24-.02-20.48,0-30.71,0-2.23.98-3.42,2.66-3.4,1.56.01,2.53,1.05,2.54,2.89.03,5.33,0,10.66,0,15.99Z" fill="#fff" stroke-width="0"/>
      <path d="m145.33,53.56c2.16,0,4.16-.09,6.15.02,3.11.17,5.06,2.53,4.95,5.8-.11,3.1-2.1,5.07-5.19,5.1-1.93.02-3.87,0-5.91,0v-10.92Z" stroke-width="0"/>
      <rect width="300" height="100" fill="none" stroke-width="0"/>
    </g>
  </g>
</svg>