<?xml version="1.0" encoding="UTF-8"?>
<svg id="b" data-name="Layer 2" xmlns="http://www.w3.org/2000/svg" viewBox="0 0 300 100">
  <g id="c" data-name="Layer 1">
    <g>
      <path d="m125.41,69.1h-7.68v17.46h3.07v-6.52h4.61c3.65,0,5.71-2.51,5.71-5.47s-2.04-5.47-5.71-5.47Zm-.42,8.25h-4.19v-5.55h4.19c1.73,0,2.99,1.1,2.99,2.78s-1.26,2.78-2.99,2.78h0Zm-51.37-8.53c-5.24,0-8.94,3.82-8.94,9.03s3.7,9.03,8.94,9.03,8.94-3.82,8.94-9.03-3.7-9.03-8.94-9.03Zm0,15.34c-3.54,0-5.79-2.72-5.79-6.31s2.25-6.31,5.79-6.31,5.79,2.69,5.79,6.31-2.28,6.31-5.79,6.31Zm33.17-9.58c0-3.22-2.25-5.47-5.71-5.47h-7.68v17.46h3.07v-6.52h3.04l3.88,6.52h3.54l-4.27-6.85c2.1-.35,4.14-2.01,4.14-5.13h-.01Zm-10.33,2.78v-5.55h4.19c1.73,0,2.99,1.1,2.99,2.78s-1.26,2.78-2.99,2.78h-4.19Zm-48.36-5.82c1.89,0,3.56,1.1,4.4,2.54l2.62-1.33c-1.31-2.1-3.49-3.93-7.03-3.93-5.17,0-9.18,3.67-9.18,9.03s4.01,9.03,9.18,9.03c3.54,0,5.69-1.83,7.03-3.93l-2.62-1.33c-.84,1.47-2.51,2.54-4.4,2.54-3.46,0-6.04-2.64-6.04-6.31s2.57-6.31,6.04-6.31Zm168.39.26h5.29v14.76h3.07v-14.76h5.29v-2.69h-13.66v2.69Zm24.12,14.76h11.99v-2.69h-8.92v-4.84h8.73v-2.69h-8.73v-4.53h8.92v-2.69h-11.99v17.46h0Zm-41.77-17.46l-6.86,17.46h3.49l1.29-3.35h8.03l1.29,3.35h3.49l-6.86-17.46h-3.85Zm-1.24,11.41l3.14-8.32,3.14,8.32h-6.3.01Zm-14.74-5.94c0-3.22-2.25-5.47-5.71-5.47h-7.68v17.46h3.07v-6.52h3.04l3.88,6.52h3.54l-4.27-6.85c2.1-.35,4.14-2.01,4.14-5.13h-.01Zm-10.33,2.78v-5.55h4.19c1.73,0,2.99,1.1,2.99,2.78s-1.26,2.78-2.99,2.78h-4.19Zm-22.85-8.53c-5.24,0-8.94,3.82-8.94,9.03s3.7,9.03,8.94,9.03,8.94-3.82,8.94-9.03-3.7-9.03-8.94-9.03Zm0,15.34c-3.54,0-5.79-2.72-5.79-6.31s2.25-6.31,5.79-6.31,5.79,2.69,5.79,6.31-2.28,6.31-5.79,6.31ZM282.77,14.83l-8.84,15.66-8.84-15.66h-11.48l15.31,27.14v17.28h10.01v-17.28l15.31-27.12h-11.48.01ZM43.32,32.25c0-9.56-7.79-17.35-17.38-17.35h-10.59l-10.01,9.99v15.34c0,10.45,8.51,18.96,18.99,18.96s18.99-8.5,18.99-18.96v-7.98Zm-10.01,7.98c0,4.94-4.03,8.97-8.98,8.97s-8.98-4.03-8.98-8.97v-15.34h10.59c4.07,0,7.37,3.3,7.37,7.36v7.98Zm78.9-9.74l-8.84-15.66h-11.48l15.31,27.14v17.28h10.01v-17.28l15.31-27.12h-11.48l-8.84,15.65h.01Zm94.72,15.59c0-6.37-3.34-10.25-11.05-12.87-8-2.74-9.73-3.69-9.73-6.01s2.15-3.75,5.43-3.75c3.1,0,5.01,1.14,6.15,3.69.17.38.32.91.32.91l8.78-2.96s-.21-.63-.32-.99c-2.09-6.2-7.46-9.54-15.16-9.54-9.13,0-15.34,5.97-15.34,12.87s3.53,10.73,12.95,14.01c6.27,2.15,7.76,3.1,7.76,5.3,0,2.38-2.39,3.99-6.02,3.99-4,0-6.21-1.43-6.93-4.64-.09-.38-.21-1.2-.21-1.2,0,0-.8.26-1.27.42l-7.73,2.52s.19.74.27,1.05c1.9,7.03,7.29,10.73,15.99,10.73,9.55,0,16.12-5.9,16.12-13.52Zm-49.88-12.87c-8-2.74-9.73-3.69-9.73-6.01s2.15-3.75,5.43-3.75c3.1,0,5.01,1.14,6.15,3.69.17.38.32.91.32.91l8.78-2.96s-.21-.63-.32-.99c-2.09-6.2-7.46-9.54-15.16-9.54-9.13,0-15.34,5.97-15.34,12.87s3.53,10.73,12.95,14.01c6.27,2.15,7.76,3.1,7.76,5.3,0,2.38-2.39,3.99-6.02,3.99-4,0-6.21-1.43-6.93-4.64-.09-.38-.21-1.2-.21-1.2,0,0-.8.26-1.27.42l-7.73,2.52s.19.74.27,1.05c1.9,7.03,7.29,10.73,15.99,10.73,9.55,0,16.12-5.9,16.12-13.52,0-6.37-3.34-10.25-11.05-12.87Zm88.76,16.01h-19.67v-7.14h19.67v-9.99h-19.67v-7.19h19.67v-9.99h-29.66v44.28h29.66v-9.99.02ZM71.83,14.91h-19.3v44.28h19.3c9.13,0,16.56-7.41,16.56-16.54v-11.21c0-9.12-7.43-16.54-16.56-16.54h0Zm6.56,27.75c0,3.61-2.94,6.55-6.56,6.55h-9.3v-24.31h9.3c3.61,0,6.56,2.94,6.56,6.55v11.21Z" stroke-width="0"/>
      <rect width="300" height="100" fill="none" stroke-width="0"/>
    </g>
  </g>
</svg>