<?xml version="1.0" encoding="UTF-8"?>
<svg id="b" data-name="Layer 2" xmlns="http://www.w3.org/2000/svg" viewBox="0 0 300 100">
  <g id="c" data-name="Layer 1">
    <g>
      <g id="d" data-name="skoda">
        <path id="e" data-name="path0" d="m43.61,13.58c-7.57.98-14.23,3.92-19.52,8.63-.45.4-.95.84-1.12.98-.17.14-.86.85-1.52,1.58-16.35,17.68-11.27,45.93,10.19,56.66,24.12,12.07,52.43-5.77,51.95-32.74-.05-2.91-.11-3.56-.54-6.04-2.89-16.63-17.64-28.99-34.9-29.23-2.45-.03-3.24,0-4.53.16m7.98,1.57c21.63,2.65,35.31,23.73,28.89,44.52-3.23,10.45-11.89,19.1-22.42,22.39-16.8,5.26-34.74-2.92-41.87-19.08-4.73-10.72-3.27-24.77,3.5-33.6.05-.06.36-.47.7-.92,7.23-9.54,19.46-14.76,31.21-13.32m-5.61,1.74c-20.96,1.2-35.36,21.67-29.33,41.71,6.23,20.71,30.59,29.65,48.74,17.88.85-.55,1.3-.87,2.26-1.61,2.05-1.57,4.35-3.9,5.83-5.9.26-.36.51-.67.55-.7.22-.18,2.08-3.21,2.57-4.19,10.75-21.4-4.23-46.57-28.09-47.18-1.01-.03-2.15-.03-2.53,0m4.58,2.96c24.79,2.34,35.7,32.85,18.02,50.42-16.18,16.07-43.15,8.76-49.49-13.43-.93-3.25-1.22-9.08-.62-12.17.05-.27.18-.91.27-1.42,2.78-14.5,16.81-24.82,31.82-23.4m-5.12,3.23c-1.1.1-2.74.38-3.98.67-2.4.57-2.42.75-.21,2.74,2.26,2.04,4.29,4.34,5.76,6.51.94,1.39.94,1.41.38,1.41-.92,0-1.74-.46-3.21-1.8-2.77-2.53-7.35-5.77-8.79-6.2-.8-.24-3.68,1.7-6.12,4.13-1.79,1.79-1.95,2.14-1.17,2.54,2.59,1.31,9.36,6.19,9.36,6.74,0,.65-1.55.39-3.61-.6-4.16-2-8.13-3.27-8.92-2.85-.52.28-2.14,4.15-2.72,6.52-.78,3.17-.73,3.32,1.39,3.73,8.48,1.65,13.56,6.01,14.99,12.88.32,1.53.21,2.11-.46,2.42-.55.26-.72.2-4.26-1.46l-1.92-.9h-8.21l-.32.32c-.6.6-.54.74,1.27,3,.75.93,1.87,2.47,2.49,3.42,1.44,2.19,1.13,2,3.21,2s1.65.1,3.94-1.25l1.46-.86,12.57-.03c14.63-.03,13.05-.19,13.05,1.26s.38,1.49,3.18.59c2.28-.73,5.61-2.89,5.84-3.77.31-1.23-5.06-4.33-8.05-4.64-.8-.08-.94.07-.99,1.17-.05,1.08-.21,1.28-1.03,1.28-.47,0-.63-.05-.84-.26-.52-.52-.52-.55.31-3.8,3.1-12.13,1.6-22.11-4.46-29.85-.97-1.23-4.32-4.6-4.85-4.87-.43-.22-3.4-.32-5.07-.16m8.41,29.57c2.07.96,2.6,3.53,1.07,5.2-2.07,2.26-5.71.85-5.71-2.21,0-2.44,2.43-4.01,4.64-2.99" fill-rule="evenodd" stroke-width="0"/>
      </g>
      <path d="m110.68,33.37l3.44,3.93c.19.23.38.3.68.3h7.23c.3,0,.49-.08.68-.3l3.44-3.93c.3-.34.19-.68-.3-.68h-4.88c-.31,0-.5.11-.69.34l-1.47,2.12h-.8l-1.47-2.12c-.19-.23-.38-.34-.72-.34h-4.84c-.5,0-.6.34-.3.68m63.75,19.74v.38c0,13.2,2.16,14,18.01,14s18.01-.8,18.01-14.04v-.34c0-13.2-2.16-13.99-18.01-13.99s-18.01.8-18.01,13.99m-1.61,13.13l-15.06-14.71,14.14-11.16c.42-.3.26-.68-.27-.68h-9.23c-.26,0-.45.08-.68.26l-14.45,11.54v-11.24c0-.38-.19-.57-.57-.57h-7.04c-.38,0-.57.19-.57.57v26.1c0,.38.19.57.57.57h7.04c.38,0,.57-.19.57-.57v-6.58l4.27-3.37,10.36,10.21c.23.23.42.3.72.3h9.91c.49,0,.64-.34.27-.68m58.43-26.55h-15.09c-.38,0-.57.19-.57.57v26.1c0,.38.19.57.57.57h15.09c16.15,0,18.27-.8,18.27-13.5v-.22c0-12.71-2.12-13.5-18.27-13.5m58.46,26.55l-13.05-26.14c-.11-.3-.34-.42-.64-.42h-11.57c-.31,0-.53.12-.65.42l-13.05,26.14c-.19.42-.03.68.41.68h7.53c.3,0,.53-.11.64-.42l1.97-3.86h17.85l1.96,3.86c.12.3.34.42.65.42h7.53c.45,0,.61-.26.42-.68m-88.05-13.13v.38c0,7.64-.3,7.75-9.23,7.75s-9.23-.11-9.23-7.75v-.38c0-7.64.3-7.75,9.23-7.75s9.23.11,9.23,7.75m39.27,0v.38c0,7-.57,7.22-9.65,7.22h-7.49v-14.83h7.49c9.07,0,9.64.23,9.64,7.23m35.35,3.82h-12.1l5.56-11.01h.98l5.56,11.01Zm-174.57,10.02c4.01.18,10.55.37,14.33.37,16.49,0,18.46-.03,18.46-9,0-7.07-2.08-7.64-10.82-7.9l-10.14-.31c-4.65-.15-4.73-.64-4.73-2.72s.57-2.16,11.73-2.16c2.11,0,8.85.11,12.41.19.37,0,.57-.19.57-.57v-4.62c0-.38-.19-.57-.53-.6-3.52-.19-9.26-.38-13.39-.38-16.19,0-18.79.31-18.79,8.66,0,7.15,1.59,8.1,11.95,8.44l9.3.3c4.35.15,4.43.68,4.43,2.31,0,2.23-.19,2.35-10.48,2.35-4.8,0-9.76-.19-14.26-.34-.38-.04-.57.15-.57.53v4.84c0,.38.19.57.53.61" stroke-width="0"/>
      <rect width="300" height="100" fill="none" stroke-width="0"/>
    </g>
  </g>
</svg>