<?xml version="1.0" encoding="UTF-8"?>
<svg id="b" data-name="Layer 2" xmlns="http://www.w3.org/2000/svg" viewBox="0 0 300 100">
  <g id="c" data-name="Layer 1">
    <g>
      <path d="m93.85,27.13c1.6,0,2.89-1.29,2.89-2.89v-15.52c0-1.59-1.3-2.89-2.89-2.89s-2.9,1.29-2.9,2.89v15.51c0,1.59,1.3,2.89,2.9,2.89h0Zm8.88,32.67c1.6,0,2.9-1.29,2.9-2.89v-21.01c0-1.59-1.3-2.89-2.9-2.89s-2.89,1.29-2.89,2.89v21.01c0,1.59,1.3,2.89,2.89,2.89Zm0-30.76c1.6,0,2.9-1.29,2.9-2.89V7.82c0-1.6-1.3-2.89-2.9-2.89s-2.89,1.29-2.89,2.89v18.32c0,1.6,1.3,2.89,2.89,2.89Zm-8.88,30.76c1.6,0,2.89-1.29,2.89-2.89v-22.91c0-1.59-1.3-2.89-2.89-2.89s-2.9,1.29-2.9,2.89v22.91c0,1.59,1.3,2.89,2.9,2.89Zm-35.54-30.04c1.59,0,2.9-1.29,2.9-2.89v-11.73c0-1.59-1.3-2.89-2.9-2.89s-2.9,1.29-2.9,2.89v11.73c0,1.6,1.3,2.89,2.9,2.89Zm-17.78,6.98c1.59,0,2.89-1.29,2.89-2.89v-13.47c0-1.6-1.3-2.89-2.89-2.89s-2.89,1.29-2.89,2.89v13.46c0,1.6,1.3,2.89,2.89,2.89h0Zm2.89,20.17v-13.31c0-1.59-1.3-2.89-2.89-2.89s-2.89,1.29-2.89,2.89v13.31c0,1.59,1.3,2.89,2.89,2.89s2.89-1.29,2.89-2.89Zm6.68,16.9h-10.47c-.44,0-.67.22-.67.67v.41c0,.42.22.67.67.67h4.24v11.84c0,.45.22.67.64.67h.67c.42,0,.67-.22.67-.67v-11.84h4.24c.42,0,.64-.24.64-.67v-.41c0-.44-.22-.67-.64-.67h0Zm-.68-36.54c-1.6,0-2.9,1.29-2.9,2.89v16.75c0,1.59,1.3,2.89,2.9,2.89s2.9-1.29,2.9-2.89v-16.75c0-1.6-1.3-2.89-2.9-2.89Zm62.2-5.56c1.6,0,2.9-1.29,2.9-2.89V7c0-1.59-1.3-2.89-2.9-2.89s-2.89,1.29-2.89,2.89v21.81c0,1.6,1.3,2.89,2.89,2.89v.02Zm-44.43-4.61c1.59,0,2.89-1.29,2.89-2.89v-10.73c0-1.6-1.3-2.89-2.89-2.89s-2.9,1.29-2.9,2.89v10.71c0,1.59,1.3,2.89,2.9,2.89v.02Zm-8.88,32.7c1.59,0,2.9-1.29,2.9-2.89v-20.28c0-1.59-1.3-2.89-2.9-2.89s-2.9,1.29-2.9,2.89v20.28c0,1.59,1.3,2.89,2.9,2.89Zm26.66-33.77c1.6,0,2.89-1.29,2.89-2.89v-13.2c0-1.6-1.3-2.89-2.89-2.89s-2.9,1.29-2.9,2.89v13.19c0,1.59,1.3,2.89,2.9,2.89h0Zm115.52,33.77c1.59,0,2.9-1.29,2.9-2.89v-4.67c0-1.6-1.3-2.89-2.9-2.89s-2.9,1.29-2.9,2.89v4.67c0,1.59,1.3,2.89,2.9,2.89Zm8.88,0c1.59,0,2.9-1.29,2.9-2.89v-7.32c0-1.6-1.3-2.89-2.9-2.89s-2.89,1.29-2.89,2.89v7.32c0,1.59,1.3,2.89,2.89,2.89Zm-8.88-14.43c1.59,0,2.9-1.29,2.9-2.89V15.13c0-1.59-1.3-2.89-2.9-2.89s-2.9,1.29-2.9,2.89v27.34c0,1.59,1.3,2.89,2.9,2.89h0Zm8.88-2.64c1.59,0,2.9-1.29,2.9-2.89v-21.91c0-1.6-1.3-2.89-2.9-2.89s-2.89,1.29-2.89,2.89v21.91c0,1.6,1.3,2.89,2.89,2.89h0ZM49.43,15.03c-1.6,0-2.9,1.29-2.9,2.89v12.49c0,1.6,1.3,2.89,2.9,2.89s2.9-1.29,2.9-2.89v-12.49c0-1.6-1.3-2.89-2.9-2.89Zm168.84,23.62c1.59,0,2.89-1.29,2.89-2.89v-15.39c0-1.6-1.3-2.89-2.89-2.89s-2.9,1.29-2.9,2.89v15.38c0,1.59,1.3,2.89,2.9,2.89h0Zm-6.65,35.7l-4.67,12.9c-.16.46.04.77.54.77h.68c.37,0,.63-.18.73-.54l1.25-3.55h5.36l1.27,3.55c.12.36.36.54.75.54h.68c.49,0,.71-.31.54-.77l-4.67-12.9c-.13-.38-.39-.54-.75-.54h-.97c-.39,0-.63.16-.75.54h0Zm1.21,1.4h.04s.31,1.29.55,2.02l1.57,4.51h-4.31l1.6-4.51c.24-.72.56-2.02.56-2.02h0Zm5.44-15.96c1.59,0,2.89-1.29,2.89-2.89v-11.38c0-1.6-1.3-2.89-2.89-2.89s-2.9,1.29-2.9,2.89v11.38c0,1.59,1.3,2.89,2.9,2.89Zm-35.54-11.65c1.59,0,2.89-1.29,2.89-2.89V11.59c0-1.6-1.3-2.89-2.89-2.89s-2.9,1.29-2.9,2.89v33.66c0,1.6,1.3,2.89,2.9,2.89h0Zm-26.66-2.78c1.59,0,2.89-1.29,2.89-2.89V7.82c0-1.6-1.3-2.89-2.89-2.89s-2.9,1.29-2.9,2.89v34.65c0,1.59,1.3,2.89,2.9,2.89h0Zm-17.78-5.55c1.59,0,2.89-1.29,2.89-2.89V6.26c0-1.6-1.3-2.89-2.89-2.89s-2.9,1.29-2.9,2.89v30.67c0,1.6,1.3,2.89,2.9,2.89h0Zm35.54,19.98c1.59,0,2.89-1.29,2.89-2.89v-2.08c0-1.6-1.3-2.89-2.89-2.89s-2.9,1.29-2.9,2.89v2.08c0,1.59,1.3,2.89,2.9,2.89Zm15.97,15.74c.45,0,.67-.24.67-.67v-.4c0-.44-.22-.67-.67-.67h-6.94c-.45,0-.67.22-.67.67v12.88c0,.45.22.67.67.67h7.27c.45,0,.67-.22.67-.67v-.4c0-.44-.22-.67-.67-.67h-5.96v-4.56h4.45c.42,0,.67-.22.67-.67v-.4c0-.45-.24-.67-.67-.67h-4.45v-4.45h5.62Zm-15.97-27.58c1.59,0,2.89-1.29,2.89-2.89V9.95c0-1.6-1.3-2.89-2.89-2.89s-2.9,1.29-2.9,2.89v35.12c0,1.59,1.3,2.89,2.9,2.89Zm-44.44,11.84c1.59,0,2.89-1.29,2.89-2.89v-13.31c0-1.59-1.3-2.89-2.89-2.89s-2.9,1.29-2.9,2.89v13.31c0,1.59,1.3,2.89,2.9,2.89Zm62.2-12.31c1.59,0,2.89-1.29,2.89-2.89V13.49c0-1.6-1.3-2.89-2.89-2.89s-2.9,1.29-2.9,2.89v31.11c0,1.59,1.3,2.89,2.9,2.89h0Zm-62.2-10.76c1.59,0,2.89-1.29,2.89-2.89V5.84c0-1.6-1.3-2.89-2.89-2.89s-2.9,1.29-2.9,2.89v27.99c0,1.6,1.3,2.89,2.9,2.89h0Zm53.32,23.07c1.59,0,2.89-1.29,2.89-2.89v-1.89c0-1.59-1.3-2.89-2.89-2.89s-2.9,1.29-2.9,2.89v1.89c0,1.59,1.3,2.89,2.9,2.89Zm48.64,23.5v-.02c.57-.28.96-.85.96-1.62,0-1.17-.85-1.87-2.03-1.87h-2.29c-.17,0-.25.09-.25.26v6.93c0,.16.08.27.25.27h2.38c1.25,0,2.24-.76,2.24-2.09,0-.9-.49-1.64-1.25-1.85Zm-2.89-2.86h1.81c.79,0,1.27.52,1.27,1.28s-.51,1.31-1.26,1.31h-1.81v-2.59Zm1.92,6.14h-1.92v-2.93h1.9c.87,0,1.48.58,1.48,1.48s-.56,1.44-1.46,1.44Zm-53.34-4.07c-.24-.44-.42-.64-.42-.64v-.04c1.57-.53,2.54-2.09,2.54-3.91s-.89-3.12-2.24-3.73c-.59-.26-1.27-.38-2.66-.38h-3.83c-.45,0-.67.22-.67.67v12.88c0,.45.22.67.67.67h.64c.44,0,.67-.22.67-.67v-4.99h3.05l2.78,5.2c.17.32.41.46.79.46h.8c.5,0,.71-.32.45-.78l-2.56-4.73h0Zm-2.44-1.87h-2.87v-5.09h2.38c.91,0,1.33.08,1.7.24.89.38,1.33,1.18,1.33,2.21,0,1.59-.99,2.64-2.54,2.64Zm-9.66-29.49c-1.6,0-2.9,1.29-2.9,2.89v2.87c0,1.59,1.3,2.89,2.9,2.89s2.9-1.29,2.9-2.89v-2.87c0-1.6-1.3-2.89-2.9-2.89Zm-2.01,23.21c-.12-.38-.39-.54-.75-.54h-.97c-.38,0-.63.16-.75.54l-4.67,12.9c-.16.46.04.77.54.77h.68c.36,0,.63-.18.73-.54l1.25-3.55h5.36l1.27,3.55c.12.36.36.54.75.54h.68c.49,0,.71-.31.54-.77l-4.68-12.9h0Zm-3.41,7.93l1.59-4.51c.24-.72.57-2.02.57-2.02h.04s.3,1.29.55,2.02l1.57,4.51h-4.32Zm5.42-76.45c-1.6,0-2.9,1.29-2.9,2.89v35.55c0,1.6,1.3,2.89,2.9,2.89s2.9-1.29,2.9-2.89V8.72c0-1.59-1.3-2.89-2.9-2.89h0Zm73.63,80.74h-3.4v-2.77h2.57c.17,0,.27-.09.27-.26v-.13c0-.17-.09-.27-.27-.27h-2.57v-2.71h3.2c.17,0,.27-.1.27-.27v-.13c0-.16-.1-.26-.27-.26h-3.68c-.17,0-.25.09-.25.26v6.93c0,.16.09.27.25.27h3.88c.16,0,.27-.1.27-.27v-.13c0-.17-.09-.27-.27-.27h0Zm5.88,0h-3.2v-6.53c0-.16-.09-.26-.25-.26h-.23c-.17,0-.26.09-.26.26v6.93c0,.16.09.27.26.27h3.68c.17,0,.27-.1.27-.27v-.13c0-.17-.09-.27-.27-.27Zm9.35-6.59c-.04-.15-.15-.2-.29-.2h-.35c-.13,0-.24.05-.28.2l-2.57,6.94c-.05.19.02.31.22.31h.23c.15,0,.26-.06.3-.21l.79-2.16h3l.79,2.16c.05.15.15.21.3.21h.24c.19,0,.26-.12.21-.31l-2.57-6.94h0Zm-1.75,4.24l1-2.71c.12-.35.29-.97.29-.97h.02s.16.62.27.97l.99,2.71h-2.58Zm-57.54-27.32v-2.55c0-1.6-1.3-2.89-2.89-2.89s-2.9,1.29-2.9,2.89v2.55c0,1.59,1.3,2.89,2.9,2.89s2.89-1.29,2.89-2.89Zm73.97,22.86h-5.57c-.17,0-.26.1-.26.27v.12c0,.17.09.27.26.27h2.41v6.54c0,.16.09.27.27.27h.22c.16,0,.25-.1.25-.27v-6.54h2.43c.17,0,.27-.09.27-.27v-.12c0-.16-.09-.27-.27-.27h0Zm-10.33,1.83c0-.78.71-1.26,1.57-1.26.68,0,1.17.31,1.43.48.14.08.27.08.37-.08l.1-.17c.09-.13.05-.26-.07-.35-.28-.21-.93-.58-1.81-.58-1.3,0-2.34.77-2.34,1.99,0,2.31,3.72,1.87,3.72,3.73,0,.78-.63,1.28-1.52,1.28-.84,0-1.46-.44-1.72-.65-.15-.1-.27-.09-.37.04l-.12.16c-.1.15-.08.27.03.38.31.25,1.09.78,2.19.78,1.42,0,2.27-.9,2.27-2.04,0-2.4-3.72-1.92-3.72-3.72Zm-99.19-24.69v-4.67c0-1.6-1.3-2.89-2.89-2.89s-2.9,1.29-2.9,2.89v4.67c0,1.59,1.3,2.89,2.9,2.89s2.89-1.29,2.89-2.89Zm45.15,31.12c.44,0,.66-.22.66-.67v-12.88c0-.44-.22-.67-.66-.67h-.64c-.42,0-.66.22-.66.67v8.57c0,.78.12,2.06.12,2.06h-.04s-.67-1.29-1.17-2.06l-6.07-8.8c-.2-.32-.42-.44-.81-.44h-.76c-.44,0-.67.22-.67.67v12.88c0,.45.22.67.67.67h.64c.44,0,.67-.22.67-.67v-8.56c0-.81-.13-2.07-.13-2.07h.04s.67,1.29,1.17,2.07l6.09,8.78c.18.32.42.45.78.45h.77Zm45.6-8.25h-3.41c-.17,0-.25.09-.25.26v6.93c0,.16.09.27.25.27h.23c.16,0,.25-.1.25-.27v-3.07h2.48c.17,0,.26-.1.26-.27v-.13c0-.17-.09-.25-.26-.25h-2.48v-2.8h2.93c.17,0,.27-.1.27-.27v-.13c0-.16-.09-.26-.27-.26Zm-161.84-22.87v-24.01c0-1.6-1.3-2.89-2.89-2.89s-2.9,1.29-2.9,2.89v24.01c0,1.59,1.3,2.89,2.9,2.89s2.89-1.29,2.89-2.89Zm-24.44,16.9h-.67c-.42,0-.67.22-.67.67v5.61h-7.41v-5.61c0-.44-.22-.67-.67-.67h-.64c-.45,0-.67.22-.67.67v12.92c0,.45.22.67.67.67h.64c.45,0,.67-.22.67-.67v-5.59h7.41v5.59c0,.45.24.67.67.67h.67c.42,0,.64-.22.64-.67v-12.92c0-.44-.22-.67-.64-.67Zm31.99-8.27c-.08-.02-.14-.02-.14,0,0,0,.03.03.13.06,1.05.31,2.83,1.05,2.83,2.59,0,5.37-14.89,5.18-14.89,15.89,0,9.14,9.56,11.53,12.37,12.04.15.02.24,0,.02-.06-1.05-.31-2.83-1.05-2.83-2.6,0-5.37,14.89-5.18,14.89-15.89,0-9.14-9.55-11.53-12.37-12.04h0Zm-7.81,23.15c.08.9.32,1.7.68,2.41-2.16-1.82-3.25-4.17-3.25-7.01,0-5.22,4.27-7.33,8.4-9.39,3.23-1.6,6.28-3.11,6.49-6.16,0-.12,0-.23-.03-.33,1.45.64,4.21,2.2,4.21,4.77,0,7.21-17.08,8.81-16.49,15.71h0Zm-11.52-79.97c-1.59,0-2.89,1.29-2.89,2.89v11.39c0,1.59,1.3,2.89,2.89,2.89s2.9-1.29,2.9-2.89v-11.38c0-1.6-1.3-2.89-2.9-2.89h0Zm0,21.14c-1.59,0-2.89,1.29-2.89,2.89v24.17c0,1.59,1.3,2.89,2.89,2.89s2.9-1.29,2.9-2.89v-24.17c0-1.6-1.3-2.89-2.9-2.89Zm-5.99,27.06v-22.94c0-1.59-1.3-2.89-2.89-2.89s-2.9,1.29-2.9,2.89v22.94c0,1.59,1.3,2.89,2.9,2.89s2.89-1.29,2.89-2.89Zm44.44,0v-18.33c0-1.6-1.3-2.89-2.9-2.89s-2.89,1.29-2.89,2.89v18.33c0,1.59,1.3,2.89,2.89,2.89s2.9-1.29,2.9-2.89Zm-38.85,29.41h-5.99v-4.58h4.47c.42,0,.67-.22.67-.67v-.41c0-.45-.24-.67-.67-.67h-4.47v-4.46h5.64c.44,0,.67-.24.67-.67v-.41c0-.44-.22-.67-.67-.67h-6.95c-.44,0-.67.22-.67.67v12.92c0,.45.23.67.67.67h7.3c.44,0,.67-.22.67-.67v-.4c0-.45-.23-.67-.67-.67Zm44.84-48.03c-1.6,0-2.9,1.29-2.9,2.89v15.73c0,1.59,1.3,2.89,2.9,2.89s2.89-1.29,2.89-2.89v-15.73c0-1.59-1.3-2.89-2.89-2.89Zm21.79,35.3c-3.83,0-6.68,2.89-6.68,7.35,0,4.16,2.9,7.35,7.12,7.35,2.15,0,3.75-.92,4.54-1.5.47-.35.53-.75.27-1.22l-.24-.42c-.28-.48-.79-.62-1.19-.31-.61.47-1.75,1.11-3.21,1.11-2.33,0-4.58-1.45-4.78-4.48h9.09c.47,0,.89-.24.98-.7.02-.06.02-.12.02-.19,0-3.81-1.99-7-5.91-7h0Zm-4.08,5.85c.24-2.38,2.07-3.74,4.03-3.74,2.51,0,3.61,2.2,3.61,3.74h-7.65,0Zm-22.84-1.86c0-1.19,1.03-1.77,2.36-1.77s2.28.49,2.86.81c.48.26.9.2,1.23-.31l.25-.42c.29-.49.2-.91-.31-1.22-.67-.42-1.95-1.08-3.89-1.08-2.75,0-5.08,1.39-5.08,4.05,0,4.75,7.25,3.83,7.25,6.57,0,1.19-1,1.86-2.39,1.86-1.64,0-2.8-.72-3.45-1.14-.48-.31-.92-.29-1.28.2l-.28.38c-.31.46-.27.9.2,1.26.79.58,2.39,1.52,4.72,1.52,3.02,0,5.06-1.75,5.06-4.13,0-4.77-7.25-3.77-7.25-6.57Zm22.91-17.78c1.59,0,2.89-1.29,2.89-2.89v-10.22c0-1.59-1.3-2.89-2.89-2.89s-2.9,1.29-2.9,2.89v10.22c0,1.59,1.3,2.89,2.9,2.89Zm8.88-13.1c-1.59,0-2.9,1.29-2.9,2.89v7.32c0,1.59,1.3,2.89,2.9,2.89s2.9-1.29,2.9-2.89v-7.32c0-1.6-1.3-2.89-2.9-2.89Zm0-42.58c-1.59,0-2.9,1.29-2.9,2.89v32.83c0,1.6,1.3,2.89,2.9,2.89s2.9-1.29,2.9-2.89V7c0-1.59-1.3-2.89-2.9-2.89Zm-26.66-.74c-1.6,0-2.9,1.29-2.9,2.89v25.15c0,1.59,1.3,2.89,2.9,2.89s2.89-1.29,2.89-2.89V6.26c0-1.6-1.3-2.89-2.89-2.89h0Zm6.46,74.2c0-1.19,1.03-1.77,2.36-1.77s2.27.49,2.86.81c.47.26.9.2,1.23-.31l.25-.42c.29-.49.2-.91-.31-1.22-.67-.42-1.94-1.08-3.89-1.08-2.75,0-5.08,1.39-5.08,4.05,0,4.75,7.25,3.83,7.25,6.57,0,1.19-1.01,1.86-2.39,1.86-1.64,0-2.8-.72-3.45-1.14-.48-.31-.92-.29-1.28.2l-.27.38c-.31.46-.27.9.2,1.26.79.58,2.39,1.52,4.72,1.52,3.02,0,5.05-1.75,5.05-4.13,0-4.77-7.25-3.77-7.25-6.57Z" stroke-width="0"/>
      <rect width="300" height="100" fill="none" stroke-width="0"/>
    </g>
  </g>
</svg>