<?xml version="1.0" encoding="UTF-8"?>
<svg id="b" data-name="Layer 2" xmlns="http://www.w3.org/2000/svg" viewBox="0 0 300 100">
  <g id="c" data-name="Layer 1">
    <g>
      <path d="m39.25,72.3c-3.82-2.39-6.64-10.65-6.64-20.47,0-.36,0-.72.01-1.07h0c-10.63-1.67-18.31-6.24-18.5-11.65l-.03.06c-2.6,3.23-4.08,6.97-4.08,10.95,0,11.72,12.86,21.31,29.17,22.16h.07ZM5.09,50.98c0-13.11,16.31-23.74,36.44-23.74s36.44,10.63,36.44,23.74-16.31,23.74-36.44,23.74S5.09,64.09,5.09,50.98h0Zm36.44-20.31c3.89,0,7.19,5.89,8.42,14.12h0c7.56-1.19,12.85-3.9,12.85-7.06,0-4.24-9.52-7.67-21.27-7.67s-21.27,3.43-21.27,7.67c0,3.16,5.29,5.87,12.85,7.05h0c1.22-8.21,4.53-14.1,8.41-14.1h0Zm2.35,41.62c16.31-.85,29.17-10.45,29.17-22.16,0-3.98-1.49-7.72-4.08-10.95l-.03-.06c-.2,5.41-7.87,9.99-18.5,11.66h0c0,.35.01.71.01,1.07,0,9.81-2.82,18.07-6.64,20.47h.07Zm-2.35-26.89c1.69,0,3.37-.07,5.05-.22h0c-.81-5.27-2.76-8.99-5.05-8.99s-4.24,3.72-5.05,8.99h0c1.68.14,3.36.22,5.05.21h0Zm0,19.52c2.93,0,5.31-6.09,5.44-13.72h.02c-3.63.34-7.28.34-10.91,0h.02c.13,7.63,2.51,13.72,5.44,13.72Zm149.5-13.94c0-10.02,8.12-18.14,18.14-18.14s18.14,8.12,18.14,18.14-8.12,18.14-18.14,18.14-18.14-8.12-18.14-18.14h0Zm18.14,11.49c5.59,0,10.13-5.15,10.13-11.49s-4.54-11.49-10.13-11.49-10.13,5.15-10.13,11.49,4.54,11.49,10.13,11.49Zm38.73-22.07v27.9h-7.65v-27.9h.03-10.69v-6.31h28.97v6.31h-10.66Zm19.91,20.21h0s-2.93,7.7-2.93,7.7h-8.93l14.12-34.21h9.52l14.11,34.21h-8.93l-2.93-7.69h0s-14,0-14,0Zm7-5.77h4.81,0s-4.78-12.52-4.78-12.52h-.07l-4.78,12.52h0s4.81,0,4.81,0Zm-167.83-14.43v27.9h-7.64v-27.9h.03-10.69v-6.31h28.97v6.31h-10.66Zm12.62,10.58c0-10.02,8.12-18.14,18.14-18.14s18.14,8.12,18.14,18.14-8.12,18.14-18.14,18.14-18.14-8.12-18.14-18.14Zm18.14,11.49c5.59,0,10.13-5.15,10.13-11.49s-4.54-11.49-10.13-11.49-10.13,5.15-10.13,11.49,4.54,11.49,10.13,11.49Zm35.71,5.83h3.88v-12.99l13.34-21.22h-8.93l-8.29,14.38-8.28-14.38h-8.93l13.34,21.22v12.99h3.87,0Z" fill-rule="evenodd" stroke-width="0"/>
      <rect width="300" height="100" fill="none" stroke-width="0"/>
    </g>
  </g>
</svg>