<?xml version="1.0" encoding="UTF-8"?>
<svg id="Layer_2" data-name="Layer 2" xmlns="http://www.w3.org/2000/svg" xmlns:xlink="http://www.w3.org/1999/xlink" viewBox="0 0 946.98 120">
  <defs>
    <style>
      .cls-1 {
        fill: #66fcf0;
      }

      .cls-1, .cls-2, .cls-3, .cls-4, .cls-5, .cls-6 {
        stroke-width: 0px;
      }

      .cls-2 {
        fill: url(#linear-gradient);
      }

      .cls-3 {
        fill: #46a29e;
      }

      .cls-4 {
        fill: url(#linear-gradient-2);
      }

      .cls-5 {
        fill: url(#linear-gradient-3);
      }

      .cls-6 {
        fill: url(#linear-gradient-4);
      }
    </style>
    <linearGradient id="linear-gradient" x1="84.04" y1="5.61" x2="84.04" y2="84.01" gradientUnits="userSpaceOnUse">
      <stop offset="0" stop-color="#202733"/>
      <stop offset="1" stop-color="#66fcf0"/>
    </linearGradient>
    <linearGradient id="linear-gradient-2" x1="120.69" y1="8.29" x2="180.4" y2="111.71" gradientUnits="userSpaceOnUse">
      <stop offset="0" stop-color="#202733"/>
      <stop offset=".13" stop-color="#212b36"/>
      <stop offset=".27" stop-color="#253741"/>
      <stop offset=".41" stop-color="#2c4b53"/>
      <stop offset=".55" stop-color="#35686c"/>
      <stop offset=".69" stop-color="#418d8d"/>
      <stop offset=".83" stop-color="#50bab5"/>
      <stop offset=".97" stop-color="#61eee4"/>
      <stop offset="1" stop-color="#66fcf0"/>
    </linearGradient>
    <linearGradient id="linear-gradient-3" x1="49.79" y1="115.58" x2="49.79" y2="4.98" gradientUnits="userSpaceOnUse">
      <stop offset="0" stop-color="#202733"/>
      <stop offset="1" stop-color="#66fcf0"/>
    </linearGradient>
    <linearGradient id="linear-gradient-4" x1="117.05" y1="114.51" x2="117.05" y2="5.51" xlink:href="#linear-gradient-3"/>
  </defs>
  <g id="Layer_1-2" data-name="Layer 1">
    <g>
      <g>
        <path class="cls-1" d="m188.76,60.41V25.11h7.9v35.3h-7.9Zm21.35,0l-14.25-18.45,13.8-16.85h9.75l-15.6,18.35v-3.2l16.15,20.15h-9.85Z"/>
        <path class="cls-1" d="m233.16,60.91c-2.2,0-4.18-.56-5.95-1.67s-3.16-2.62-4.17-4.5-1.52-4.04-1.52-6.48.51-4.61,1.52-6.52,2.4-3.42,4.15-4.5,3.74-1.62,5.97-1.62c1.63,0,3.11.32,4.42.95,1.32.63,2.39,1.51,3.23,2.62.83,1.12,1.3,2.39,1.4,3.83v10.5c-.1,1.43-.56,2.71-1.38,3.83-.82,1.12-1.88,1.99-3.2,2.62-1.32.63-2.81.95-4.48.95Zm1.6-6.95c1.63,0,2.94-.53,3.92-1.6.98-1.07,1.47-2.45,1.47-4.15,0-1.1-.22-2.08-.65-2.92-.43-.85-1.07-1.52-1.9-2-.83-.48-1.78-.73-2.85-.73s-1.96.24-2.78.73c-.82.48-1.47,1.16-1.95,2.02-.48.87-.72,1.85-.72,2.95s.24,2.08.72,2.95c.48.87,1.13,1.54,1.95,2.03.82.48,1.74.72,2.78.72Zm5.1,6.45v-6.55l1.15-5.95-1.15-5.85v-5.95h7.55v24.3h-7.55Z"/>
        <path class="cls-1" d="m255.56,60.41v-24.3h7.7v24.3h-7.7Zm7.7-13.3l-3.2-2.5c.63-2.87,1.71-5.08,3.22-6.65,1.52-1.57,3.59-2.35,6.22-2.35,1.17,0,2.19.17,3.08.52.88.35,1.66.88,2.33,1.58l-4.55,5.8c-.3-.33-.7-.6-1.2-.8s-1.07-.3-1.7-.3c-1.3,0-2.33.39-3.08,1.17s-1.12,1.96-1.12,3.53Z"/>
        <path class="cls-1" d="m279.66,60.41V24.11h7.7v36.3h-7.7Z"/>
        <path class="cls-1" d="m308.56,60.41V25.11h5.7l13.9,21.65h-2.95l13.85-21.65h5.7v35.3h-7.85v-22.05l1.35.4-9,14.05h-5.2l-9-14.05,1.35-.4v22.05h-7.85Z"/>
        <path class="cls-1" d="m361.02,40.81c-1.77,0-3.37-.38-4.79-1.15-1.42-.77-2.54-1.83-3.34-3.18s-1.21-2.87-1.21-4.55.41-3.22,1.22-4.56c.82-1.34,1.94-2.4,3.36-3.17,1.42-.77,3.02-1.15,4.79-1.15,1.35,0,2.58.23,3.69.68,1.11.46,2.09,1.13,2.96,2.01l-3.46,3.5c-.4-.44-.86-.77-1.38-.98-.52-.21-1.12-.31-1.8-.31-.75,0-1.42.17-2.01.51-.59.34-1.06.8-1.4,1.4s-.51,1.28-.51,2.05.17,1.49.51,2.1c.34.61.81,1.08,1.42,1.42.61.34,1.27.51,1.99.51s1.32-.12,1.87-.35c.55-.23,1.02-.57,1.42-1.01l3.46,3.43c-.91.93-1.92,1.64-3.03,2.12s-2.36.72-3.76.72Z"/>
        <path class="cls-1" d="m390.32,60.96c-2.63,0-5.07-.46-7.32-1.38s-4.22-2.21-5.9-3.88c-1.68-1.67-2.99-3.61-3.92-5.83-.93-2.22-1.4-4.61-1.4-7.17s.47-4.96,1.4-7.17c.93-2.22,2.24-4.14,3.92-5.78,1.68-1.63,3.64-2.91,5.88-3.83,2.23-.92,4.68-1.38,7.35-1.38,2.8,0,5.29.45,7.48,1.35,2.18.9,4.09,2.13,5.72,3.7l-5.3,5.35c-.9-1-2.01-1.78-3.33-2.35-1.32-.57-2.84-.85-4.58-.85-1.53,0-2.93.26-4.2.78-1.27.52-2.37,1.26-3.3,2.22-.93.97-1.65,2.13-2.15,3.5-.5,1.37-.75,2.85-.75,4.45s.25,3.17.75,4.53c.5,1.35,1.22,2.52,2.15,3.5s2.03,1.73,3.3,2.25c1.27.52,2.67.77,4.2.77,1.8,0,3.37-.27,4.7-.83,1.33-.55,2.47-1.34,3.4-2.38l5.35,5.35c-1.67,1.6-3.6,2.84-5.8,3.72s-4.75,1.33-7.65,1.33Z"/>
        <path class="cls-1" d="m410.11,60.41V24.11h7.7v36.3h-7.7Z"/>
        <path class="cls-1" d="m438.02,60.96c-2.63,0-4.97-.54-7-1.62-2.03-1.08-3.63-2.59-4.8-4.53-1.17-1.93-1.75-4.13-1.75-6.6s.57-4.56,1.7-6.47c1.13-1.92,2.68-3.43,4.65-4.53,1.97-1.1,4.18-1.65,6.65-1.65s4.57.52,6.4,1.55c1.83,1.03,3.28,2.47,4.35,4.3s1.6,3.93,1.6,6.3c0,.47-.03.94-.08,1.42-.05.48-.16,1.03-.33,1.62l-20.9.1v-5.3l17.6-.1-3.3,2.25c-.03-1.37-.25-2.51-.65-3.42-.4-.92-.99-1.62-1.77-2.12-.78-.5-1.73-.75-2.83-.75-1.2,0-2.24.28-3.12.85-.88.57-1.57,1.35-2.05,2.35-.48,1-.73,2.2-.73,3.6s.26,2.62.78,3.65c.52,1.03,1.25,1.82,2.2,2.38.95.55,2.07.82,3.38.82,1.17,0,2.23-.21,3.2-.62.97-.42,1.82-1.04,2.55-1.88l4.25,4.2c-1.2,1.43-2.65,2.49-4.35,3.17-1.7.68-3.58,1.03-5.65,1.03Z"/>
        <path class="cls-1" d="m456.21,60.41V24.11h7.7v36.3h-7.7Z"/>
        <path class="cls-1" d="m472.11,60.41V24.11h7.7v36.3h-7.7Z"/>
        <path class="cls-1" d="m498.16,60.91c-2.2,0-4.18-.56-5.95-1.67s-3.16-2.62-4.17-4.5-1.52-4.04-1.52-6.48.51-4.61,1.52-6.52,2.4-3.42,4.15-4.5,3.74-1.62,5.97-1.62c1.63,0,3.11.32,4.42.95,1.32.63,2.39,1.51,3.23,2.62.83,1.12,1.3,2.39,1.4,3.83v10.5c-.1,1.43-.56,2.71-1.38,3.83-.82,1.12-1.88,1.99-3.2,2.62-1.32.63-2.81.95-4.48.95Zm1.6-6.95c1.63,0,2.94-.53,3.92-1.6.98-1.07,1.47-2.45,1.47-4.15,0-1.1-.22-2.08-.65-2.92-.43-.85-1.07-1.52-1.9-2-.83-.48-1.78-.73-2.85-.73s-1.96.24-2.78.73c-.82.48-1.47,1.16-1.95,2.02-.48.87-.72,1.85-.72,2.95s.24,2.08.72,2.95c.48.87,1.13,1.54,1.95,2.03.82.48,1.74.72,2.78.72Zm5.1,6.45v-6.55l1.15-5.95-1.15-5.85v-5.95h7.55v24.3h-7.55Z"/>
        <path class="cls-1" d="m520.56,60.41v-24.3h7.7v24.3h-7.7Zm16.1,0v-13.85c0-1.23-.4-2.24-1.2-3.02s-1.8-1.17-3-1.17c-.8,0-1.52.17-2.15.52-.63.35-1.13.84-1.5,1.48-.37.63-.55,1.37-.55,2.2l-2.95-1.45c0-1.9.42-3.57,1.27-5,.85-1.43,2.02-2.54,3.5-3.33s3.16-1.17,5.03-1.17c1.77,0,3.35.42,4.75,1.25,1.4.83,2.5,1.96,3.3,3.38s1.2,2.96,1.2,4.62v15.55h-7.7Z"/>
        <path class="cls-1" d="m562.36,60.91c-2.33,0-4.39-.55-6.17-1.65-1.78-1.1-3.17-2.6-4.17-4.5-1-1.9-1.5-4.07-1.5-6.5s.5-4.6,1.5-6.5c1-1.9,2.4-3.4,4.2-4.5,1.8-1.1,3.85-1.65,6.15-1.65,1.63,0,3.13.31,4.5.92,1.37.62,2.48,1.48,3.35,2.6.87,1.12,1.37,2.41,1.5,3.88v10.25c-.13,1.43-.63,2.73-1.5,3.88-.87,1.15-1.98,2.07-3.35,2.75-1.37.68-2.87,1.03-4.5,1.03Zm1.35-6.95c1.1,0,2.05-.24,2.85-.72s1.42-1.16,1.88-2.03c.45-.87.67-1.87.67-3s-.22-2.08-.67-2.92c-.45-.85-1.08-1.52-1.88-2s-1.73-.73-2.8-.73-2,.25-2.8.75c-.8.5-1.44,1.18-1.93,2.03s-.72,1.83-.72,2.92.22,2.08.67,2.95c.45.87,1.09,1.54,1.92,2.03s1.77.72,2.8.72Zm12.65,6.45h-7.55v-6.55l1.15-5.95-1.3-5.85v-17.95h7.7v36.3Z"/>
        <path class="cls-3" d="m196.56,103.44l-9.83-24.67h2.87l8.5,21.77h-1.04l8.54-21.77h2.83l-9.9,24.67h-1.97Z"/>
        <path class="cls-3" d="m213.56,82.97c-.48,0-.88-.18-1.22-.54-.33-.36-.5-.78-.5-1.25,0-.5.17-.92.5-1.26.33-.33.74-.5,1.22-.5.53,0,.95.17,1.27.5.32.34.48.75.48,1.26s-.16.9-.48,1.25c-.32.36-.75.54-1.27.54Zm-1.26,20.48v-16.86h2.55v16.86h-2.55Z"/>
        <path class="cls-3" d="m219.91,103.44v-16.86h2.55v16.86h-2.55Zm2.55-9.83l-1.04-.43c0-2.15.52-3.85,1.56-5.09s2.47-1.87,4.29-1.87c.84,0,1.6.15,2.3.45.69.3,1.34.77,1.94,1.42l-1.69,1.76c-.38-.43-.82-.74-1.31-.93s-1.05-.29-1.67-.29c-1.29,0-2.34.42-3.16,1.25-.81.84-1.22,2.08-1.22,3.73Z"/>
        <path class="cls-3" d="m232.14,88.88v-2.3h11.01v2.3h-11.01Zm4.23,14.56v-23.96h2.55v23.96h-2.55Z"/>
        <path class="cls-3" d="m253.26,103.8c-1.36,0-2.59-.32-3.68-.95-1.09-.63-1.93-1.51-2.53-2.62-.6-1.11-.9-2.4-.9-3.86v-9.79h2.55v9.68c0,1.03.19,1.92.56,2.69.37.76.9,1.36,1.6,1.79.69.43,1.49.65,2.4.65,1.41,0,2.52-.47,3.34-1.4.81-.93,1.22-2.18,1.22-3.73v-9.68h2.55v9.79c0,1.46-.3,2.75-.9,3.87s-1.43,2-2.49,2.62c-1.06.62-2.3.93-3.71.93Z"/>
        <path class="cls-3" d="m272.34,103.8c-1.58,0-3-.39-4.27-1.17-1.27-.78-2.27-1.82-3.01-3.14-.74-1.31-1.11-2.8-1.11-4.45s.37-3.17,1.11-4.5c.74-1.33,1.74-2.38,3-3.16s2.67-1.17,4.25-1.17c1.29,0,2.44.26,3.46.77,1.02.51,1.85,1.23,2.49,2.15.65.92,1.03,1.99,1.15,3.21v5.27c-.14,1.22-.53,2.29-1.17,3.23-.63.93-1.45,1.66-2.46,2.17-1,.51-2.15.77-3.44.77Zm.39-2.4c1.77,0,3.18-.59,4.23-1.76,1.05-1.17,1.58-2.71,1.58-4.63,0-1.27-.24-2.38-.72-3.34-.48-.96-1.16-1.7-2.04-2.24s-1.91-.81-3.08-.81-2.22.27-3.14.82c-.92.55-1.65,1.3-2.19,2.26-.54.96-.81,2.06-.81,3.3s.27,2.34.81,3.3,1.27,1.71,2.21,2.26c.93.55,1.98.83,3.16.83Zm5.67,2.04v-4.52l.5-4.16-.5-4.05v-4.12h2.55v16.86h-2.55Z"/>
        <path class="cls-3" d="m285.97,103.44v-25.39h2.55v25.39h-2.55Z"/>
        <path class="cls-3" d="m299.49,81.17v-2.4h20.05v2.4h-20.05Zm8.71,22.27v-23.99h2.65v23.99h-2.65Z"/>
        <path class="cls-3" d="m325.49,103.8c-1.65,0-3.13-.39-4.45-1.18-1.32-.79-2.36-1.85-3.14-3.19-.78-1.34-1.17-2.83-1.17-4.48s.39-3.1,1.17-4.41c.78-1.31,1.82-2.36,3.14-3.14,1.31-.78,2.8-1.17,4.45-1.17s3.1.38,4.43,1.15c1.33.77,2.38,1.81,3.16,3.14s1.17,2.8,1.17,4.43-.39,3.17-1.17,4.5c-.78,1.33-1.83,2.39-3.16,3.17-1.33.79-2.8,1.18-4.43,1.18Zm0-2.44c1.17,0,2.22-.27,3.16-.82s1.66-1.32,2.19-2.3c.53-.98.79-2.08.79-3.3s-.27-2.26-.81-3.21c-.54-.94-1.27-1.69-2.19-2.24-.92-.55-1.97-.83-3.14-.83s-2.22.28-3.16.83c-.93.55-1.66,1.3-2.19,2.24-.53.95-.79,2.01-.79,3.21s.26,2.35.79,3.32c.53.97,1.25,1.73,2.19,2.28s1.98.82,3.16.82Z"/>
        <path class="cls-3" d="m344.9,103.8c-1.36,0-2.59-.32-3.68-.95-1.09-.63-1.93-1.51-2.53-2.62-.6-1.11-.9-2.4-.9-3.86v-9.79h2.55v9.68c0,1.03.19,1.92.56,2.69.37.76.9,1.36,1.6,1.79.69.43,1.49.65,2.4.65,1.41,0,2.52-.47,3.34-1.4.81-.93,1.22-2.18,1.22-3.73v-9.68h2.55v9.79c0,1.46-.3,2.75-.9,3.87s-1.43,2-2.49,2.62c-1.06.62-2.3.93-3.71.93Z"/>
        <path class="cls-3" d="m356.66,103.44v-16.86h2.55v16.86h-2.55Zm2.55-9.83l-1.04-.43c0-2.15.52-3.85,1.56-5.09s2.47-1.87,4.29-1.87c.84,0,1.6.15,2.3.45.69.3,1.34.77,1.94,1.42l-1.69,1.76c-.38-.43-.82-.74-1.31-.93s-1.05-.29-1.67-.29c-1.29,0-2.34.42-3.16,1.25-.81.84-1.22,2.08-1.22,3.73Z"/>
        <path class="cls-3" d="m375.7,103.8c-.91,0-1.78-.13-2.62-.38s-1.6-.6-2.28-1.06c-.68-.45-1.29-.99-1.81-1.61l1.65-1.65c.67.81,1.43,1.42,2.28,1.81.85.39,1.8.59,2.85.59s1.97-.21,2.6-.65c.63-.43.95-1.03.95-1.79,0-.72-.22-1.27-.66-1.67-.44-.39-1.02-.72-1.74-.97-.72-.25-1.47-.49-2.26-.72-.79-.23-1.54-.51-2.24-.86-.71-.35-1.29-.83-1.74-1.43-.45-.61-.68-1.43-.68-2.46,0-.96.24-1.79.72-2.49.48-.7,1.15-1.25,2.01-1.65.86-.39,1.9-.59,3.12-.59s2.41.23,3.44.68,1.85,1.12,2.47,2.01l-1.65,1.65c-.48-.65-1.09-1.15-1.85-1.51-.75-.36-1.6-.54-2.53-.54-1.08,0-1.9.21-2.46.63-.56.42-.84.96-.84,1.63s.23,1.15.68,1.52c.45.37,1.03.67,1.74.9.71.23,1.45.46,2.24.68.79.23,1.54.53,2.26.9.72.37,1.3.87,1.74,1.51s.66,1.49.66,2.56c0,1.51-.54,2.71-1.63,3.6s-2.56,1.35-4.43,1.35Z"/>
        <path class="cls-3" d="m394.68,108.11v-31.85h2.33v31.85h-2.33Z"/>
        <path class="cls-3" d="m417.84,103.44l-8-24.67h2.65l6.71,21.23h-.79l6.6-21.23h2.01l6.63,21.23h-.83l6.74-21.23h2.65l-8,24.67h-1.94l-6.67-21.2h.79l-6.64,21.2h-1.94Z"/>
        <path class="cls-3" d="m450.88,103.8c-1.67,0-3.18-.38-4.52-1.15-1.34-.76-2.4-1.82-3.17-3.16-.78-1.34-1.17-2.84-1.17-4.52s.38-3.14,1.13-4.46,1.79-2.37,3.1-3.14c1.31-.76,2.79-1.15,4.41-1.15s2.92.35,4.11,1.04c1.18.69,2.12,1.66,2.8,2.89.68,1.23,1.02,2.65,1.02,4.25,0,.19-.01.41-.04.66s-.07.54-.14.88h-14.6v-2.15h13.2l-.9.79c.02-1.22-.19-2.28-.63-3.17s-1.08-1.6-1.9-2.1c-.83-.5-1.81-.75-2.96-.75-1.22,0-2.28.27-3.19.81-.91.54-1.62,1.28-2.13,2.22-.51.94-.77,2.05-.77,3.32s.27,2.43.81,3.41,1.29,1.75,2.26,2.29c.97.55,2.09.83,3.35.83,1,0,1.94-.19,2.8-.56.86-.37,1.59-.93,2.19-1.67l1.65,1.65c-.79.96-1.77,1.69-2.94,2.19s-2.43.75-3.77.75Z"/>
        <path class="cls-3" d="m462.39,103.44v-25.39h2.55v12.66l-.5,4.05.5,4.16v4.52h-2.55Zm8.75.36c-1.29,0-2.45-.26-3.48-.79-1.03-.53-1.87-1.25-2.53-2.17-.66-.92-1.06-1.99-1.2-3.21v-5.27c.14-1.24.55-2.33,1.22-3.25.67-.92,1.52-1.63,2.56-2.13,1.04-.5,2.18-.75,3.43-.75,1.55,0,2.95.39,4.2,1.17,1.24.78,2.23,1.83,2.96,3.16.73,1.33,1.09,2.83,1.09,4.5s-.36,3.13-1.08,4.45c-.72,1.32-1.7,2.36-2.96,3.14-1.25.78-2.66,1.17-4.21,1.17Zm-.47-2.4c1.2,0,2.25-.27,3.16-.81.91-.54,1.63-1.29,2.15-2.26.53-.97.79-2.07.79-3.32s-.26-2.35-.79-3.32c-.53-.97-1.24-1.72-2.13-2.26-.9-.54-1.93-.81-3.1-.81s-2.21.27-3.1.81-1.6,1.29-2.1,2.26c-.5.97-.75,2.07-.75,3.32s.25,2.35.75,3.32c.5.97,1.2,1.72,2.08,2.26.88.54,1.9.81,3.05.81Z"/>
        <path class="cls-3" d="m488.86,103.44l10.08-24.67h2.01l10.01,24.67h-2.87l-8.68-21.77h1.04l-8.79,21.77h-2.8Zm4.63-6.42v-2.29h12.91v2.29h-12.91Z"/>
        <path class="cls-3" d="m514.79,103.44v-16.86h2.55v16.86h-2.55Zm2.55-9.83l-1.04-.43c0-2.15.52-3.85,1.56-5.09s2.47-1.87,4.29-1.87c.84,0,1.6.15,2.3.45.69.3,1.34.77,1.94,1.42l-1.69,1.76c-.38-.43-.82-.74-1.31-.93s-1.05-.29-1.67-.29c-1.29,0-2.34.42-3.16,1.25-.81.84-1.22,2.08-1.22,3.73Z"/>
        <path class="cls-3" d="m536.02,103.8c-1.65,0-3.14-.39-4.46-1.17-1.33-.78-2.37-1.83-3.14-3.17-.77-1.34-1.15-2.83-1.15-4.48s.38-3.14,1.15-4.46c.76-1.33,1.81-2.37,3.14-3.14,1.33-.76,2.82-1.15,4.46-1.15,1.29,0,2.49.24,3.59.72s2.03,1.15,2.8,2.01l-1.69,1.72c-.57-.65-1.26-1.14-2.06-1.49s-1.68-.52-2.64-.52c-1.17,0-2.22.28-3.16.83-.93.55-1.66,1.3-2.19,2.24-.53.95-.79,2.03-.79,3.25s.26,2.31.79,3.28c.53.97,1.25,1.73,2.19,2.28s1.98.82,3.16.82c.96,0,1.84-.17,2.65-.52.81-.35,1.52-.84,2.12-1.49l1.69,1.69c-.79.88-1.74,1.57-2.85,2.04-1.11.48-2.31.72-3.6.72Z"/>
        <path class="cls-3" d="m545.95,103.44v-25.39h2.55v25.39h-2.55Zm12.3,0v-9.9c0-1.46-.44-2.65-1.33-3.57-.88-.92-2.04-1.38-3.48-1.38-.96,0-1.81.21-2.55.63-.74.42-1.33,1-1.76,1.74-.43.74-.65,1.59-.65,2.55l-1.15-.65c0-1.27.3-2.4.9-3.41.6-1,1.41-1.79,2.44-2.37,1.03-.57,2.19-.86,3.48-.86s2.44.29,3.44.88c1,.59,1.79,1.39,2.35,2.42.56,1.03.84,2.22.84,3.59v10.33h-2.55Z"/>
        <path class="cls-3" d="m566.75,82.97c-.48,0-.88-.18-1.22-.54-.33-.36-.5-.78-.5-1.25,0-.5.17-.92.5-1.26.33-.33.74-.5,1.22-.5.53,0,.95.17,1.27.5.32.34.48.75.48,1.26s-.16.9-.48,1.25c-.32.36-.75.54-1.27.54Zm-1.26,20.48v-16.86h2.55v16.86h-2.55Z"/>
        <path class="cls-3" d="m571.49,88.88v-2.3h11.01v2.3h-11.01Zm4.23,14.56v-23.96h2.55v23.96h-2.55Z"/>
        <path class="cls-3" d="m592.97,103.8c-1.67,0-3.18-.38-4.52-1.15-1.34-.76-2.4-1.82-3.17-3.16-.78-1.34-1.17-2.84-1.17-4.52s.38-3.14,1.13-4.46,1.79-2.37,3.1-3.14c1.31-.76,2.79-1.15,4.41-1.15s2.92.35,4.11,1.04c1.18.69,2.12,1.66,2.8,2.89.68,1.23,1.02,2.65,1.02,4.25,0,.19-.01.41-.04.66s-.07.54-.14.88h-14.6v-2.15h13.2l-.9.79c.02-1.22-.19-2.28-.63-3.17s-1.08-1.6-1.9-2.1c-.83-.5-1.81-.75-2.96-.75-1.22,0-2.28.27-3.19.81-.91.54-1.62,1.28-2.13,2.22-.51.94-.77,2.05-.77,3.32s.27,2.43.81,3.41,1.29,1.75,2.26,2.29c.97.55,2.09.83,3.35.83,1,0,1.94-.19,2.8-.56.86-.37,1.59-.93,2.19-1.67l1.65,1.65c-.79.96-1.77,1.69-2.94,2.19s-2.43.75-3.77.75Z"/>
        <path class="cls-3" d="m612.16,103.8c-1.65,0-3.14-.39-4.46-1.17-1.33-.78-2.37-1.83-3.14-3.17-.77-1.34-1.15-2.83-1.15-4.48s.38-3.14,1.15-4.46c.76-1.33,1.81-2.37,3.14-3.14,1.33-.76,2.82-1.15,4.46-1.15,1.29,0,2.49.24,3.59.72s2.03,1.15,2.8,2.01l-1.69,1.72c-.57-.65-1.26-1.14-2.06-1.49s-1.68-.52-2.64-.52c-1.17,0-2.22.28-3.16.83-.93.55-1.66,1.3-2.19,2.24-.53.95-.79,2.03-.79,3.25s.26,2.31.79,3.28c.53.97,1.25,1.73,2.19,2.28s1.98.82,3.16.82c.96,0,1.84-.17,2.65-.52.81-.35,1.52-.84,2.12-1.49l1.69,1.69c-.79.88-1.74,1.57-2.85,2.04-1.11.48-2.31.72-3.6.72Z"/>
        <path class="cls-3" d="m620.48,88.88v-2.3h11.01v2.3h-11.01Zm4.23,14.56v-23.96h2.55v23.96h-2.55Z"/>
        <path class="cls-3" d="m641.6,103.8c-1.36,0-2.59-.32-3.68-.95-1.09-.63-1.93-1.51-2.53-2.62-.6-1.11-.9-2.4-.9-3.86v-9.79h2.55v9.68c0,1.03.19,1.92.56,2.69.37.76.9,1.36,1.6,1.79.69.43,1.49.65,2.4.65,1.41,0,2.52-.47,3.34-1.4.81-.93,1.22-2.18,1.22-3.73v-9.68h2.55v9.79c0,1.46-.3,2.75-.9,3.87s-1.43,2-2.49,2.62c-1.06.62-2.3.93-3.71.93Z"/>
        <path class="cls-3" d="m653.36,103.44v-16.86h2.55v16.86h-2.55Zm2.55-9.83l-1.04-.43c0-2.15.52-3.85,1.56-5.09s2.47-1.87,4.29-1.87c.84,0,1.6.15,2.3.45.69.3,1.34.77,1.94,1.42l-1.69,1.76c-.38-.43-.82-.74-1.31-.93s-1.05-.29-1.67-.29c-1.29,0-2.34.42-3.16,1.25-.81.84-1.22,2.08-1.22,3.73Z"/>
        <path class="cls-3" d="m674.7,103.8c-1.67,0-3.18-.38-4.52-1.15-1.34-.76-2.4-1.82-3.17-3.16-.78-1.34-1.17-2.84-1.17-4.52s.38-3.14,1.13-4.46,1.79-2.37,3.1-3.14c1.31-.76,2.79-1.15,4.41-1.15s2.92.35,4.11,1.04c1.18.69,2.12,1.66,2.8,2.89.68,1.23,1.02,2.65,1.02,4.25,0,.19-.01.41-.04.66s-.07.54-.14.88h-14.6v-2.15h13.2l-.9.79c.02-1.22-.19-2.28-.63-3.17s-1.08-1.6-1.9-2.1c-.83-.5-1.81-.75-2.96-.75-1.22,0-2.28.27-3.19.81-.91.54-1.62,1.28-2.13,2.22-.51.94-.77,2.05-.77,3.32s.27,2.43.81,3.41,1.29,1.75,2.26,2.29c.97.55,2.09.83,3.35.83,1,0,1.94-.19,2.8-.56.86-.37,1.59-.93,2.19-1.67l1.65,1.65c-.79.96-1.77,1.69-2.94,2.19s-2.43.75-3.77.75Z"/>
        <path class="cls-3" d="m695.18,108.11v-31.85h2.33v31.85h-2.33Z"/>
        <path class="cls-3" d="m718.96,103.8c-1.94,0-3.6-.36-4.99-1.08-1.39-.72-2.59-1.75-3.62-3.08l1.83-1.79c.84,1.17,1.81,2.04,2.92,2.62,1.11.57,2.43.86,3.96.86s2.85-.36,3.82-1.08c.97-.72,1.45-1.71,1.45-2.98,0-.98-.22-1.79-.66-2.42s-1.03-1.15-1.78-1.54-1.55-.75-2.42-1.06-1.75-.64-2.64-.99c-.88-.35-1.69-.78-2.42-1.29-.73-.51-1.32-1.18-1.78-2.01-.45-.82-.68-1.87-.68-3.14,0-1.34.32-2.49.97-3.44.65-.96,1.54-1.69,2.67-2.21,1.13-.51,2.42-.77,3.86-.77,1.6,0,3.03.31,4.29.93,1.26.62,2.3,1.46,3.14,2.51l-1.83,1.83c-.77-.93-1.6-1.63-2.51-2.1-.91-.47-1.96-.7-3.16-.7-1.43,0-2.58.33-3.44,1-.86.67-1.29,1.6-1.29,2.8,0,.91.22,1.65.66,2.22s1.03,1.05,1.78,1.43c.74.38,1.55.72,2.42,1.02.87.3,1.75.63,2.64.99.88.36,1.69.81,2.42,1.36.73.55,1.32,1.25,1.78,2.1s.68,1.93.68,3.25c0,2.13-.72,3.78-2.17,4.97-1.45,1.18-3.41,1.78-5.9,1.78Z"/>
        <path class="cls-3" d="m738.61,103.8c-1.65,0-3.13-.39-4.45-1.18-1.32-.79-2.36-1.85-3.14-3.19-.78-1.34-1.17-2.83-1.17-4.48s.39-3.1,1.17-4.41c.78-1.31,1.82-2.36,3.14-3.14,1.31-.78,2.8-1.17,4.45-1.17s3.1.38,4.43,1.15c1.33.77,2.38,1.81,3.16,3.14s1.17,2.8,1.17,4.43-.39,3.17-1.17,4.5c-.78,1.33-1.83,2.39-3.16,3.17-1.33.79-2.8,1.18-4.43,1.18Zm0-2.44c1.17,0,2.22-.27,3.16-.82s1.66-1.32,2.19-2.3c.53-.98.79-2.08.79-3.3s-.27-2.26-.81-3.21c-.54-.94-1.27-1.69-2.19-2.24-.92-.55-1.97-.83-3.14-.83s-2.22.28-3.16.83c-.93.55-1.66,1.3-2.19,2.24-.53.95-.79,2.01-.79,3.21s.26,2.35.79,3.32c.53.97,1.25,1.73,2.19,2.28s1.98.82,3.16.82Z"/>
        <path class="cls-3" d="m758.98,103.8c-1.65,0-3.14-.39-4.46-1.17-1.33-.78-2.37-1.83-3.14-3.17-.77-1.34-1.15-2.83-1.15-4.48s.38-3.14,1.15-4.46c.76-1.33,1.81-2.37,3.14-3.14,1.33-.76,2.82-1.15,4.46-1.15,1.29,0,2.49.24,3.59.72s2.03,1.15,2.8,2.01l-1.69,1.72c-.57-.65-1.26-1.14-2.06-1.49s-1.68-.52-2.64-.52c-1.17,0-2.22.28-3.16.83-.93.55-1.66,1.3-2.19,2.24-.53.95-.79,2.03-.79,3.25s.26,2.31.79,3.28c.53.97,1.25,1.73,2.19,2.28s1.98.82,3.16.82c.96,0,1.84-.17,2.65-.52.81-.35,1.52-.84,2.12-1.49l1.69,1.69c-.79.88-1.74,1.57-2.85,2.04-1.11.48-2.31.72-3.6.72Z"/>
        <path class="cls-3" d="m770.21,82.97c-.48,0-.88-.18-1.22-.54-.33-.36-.5-.78-.5-1.25,0-.5.17-.92.5-1.26.33-.33.74-.5,1.22-.5.53,0,.95.17,1.27.5.32.34.48.75.48,1.26s-.16.9-.48,1.25c-.32.36-.75.54-1.27.54Zm-1.26,20.48v-16.86h2.55v16.86h-2.55Z"/>
        <path class="cls-3" d="m783.87,103.8c-1.58,0-3-.39-4.27-1.17-1.27-.78-2.27-1.82-3.01-3.14-.74-1.31-1.11-2.8-1.11-4.45s.37-3.17,1.11-4.5c.74-1.33,1.74-2.38,3-3.16s2.67-1.17,4.25-1.17c1.29,0,2.44.26,3.46.77,1.02.51,1.85,1.23,2.49,2.15.65.92,1.03,1.99,1.15,3.21v5.27c-.14,1.22-.53,2.29-1.17,3.23-.63.93-1.45,1.66-2.46,2.17-1,.51-2.15.77-3.44.77Zm.39-2.4c1.77,0,3.18-.59,4.23-1.76,1.05-1.17,1.58-2.71,1.58-4.63,0-1.27-.24-2.38-.72-3.34-.48-.96-1.16-1.7-2.04-2.24s-1.91-.81-3.08-.81-2.22.27-3.14.82c-.92.55-1.65,1.3-2.19,2.26-.54.96-.81,2.06-.81,3.3s.27,2.34.81,3.3,1.27,1.71,2.21,2.26c.93.55,1.98.83,3.16.83Zm5.67,2.04v-4.52l.5-4.16-.5-4.05v-4.12h2.55v16.86h-2.55Z"/>
        <path class="cls-3" d="m797.5,103.44v-25.39h2.55v25.39h-2.55Z"/>
        <path class="cls-3" d="m820.28,103.8c-1.94,0-3.6-.36-4.99-1.08-1.39-.72-2.59-1.75-3.62-3.08l1.83-1.79c.84,1.17,1.81,2.04,2.92,2.62,1.11.57,2.43.86,3.96.86s2.85-.36,3.82-1.08c.97-.72,1.45-1.71,1.45-2.98,0-.98-.22-1.79-.66-2.42s-1.03-1.15-1.78-1.54-1.55-.75-2.42-1.06-1.75-.64-2.64-.99c-.88-.35-1.69-.78-2.42-1.29-.73-.51-1.32-1.18-1.78-2.01-.45-.82-.68-1.87-.68-3.14,0-1.34.32-2.49.97-3.44.65-.96,1.54-1.69,2.67-2.21,1.13-.51,2.42-.77,3.86-.77,1.6,0,3.03.31,4.29.93,1.26.62,2.3,1.46,3.14,2.51l-1.83,1.83c-.77-.93-1.6-1.63-2.51-2.1-.91-.47-1.96-.7-3.16-.7-1.43,0-2.58.33-3.44,1-.86.67-1.29,1.6-1.29,2.8,0,.91.22,1.65.66,2.22s1.03,1.05,1.78,1.43c.74.38,1.55.72,2.42,1.02.87.3,1.75.63,2.64.99.88.36,1.69.81,2.42,1.36.73.55,1.32,1.25,1.78,2.1s.68,1.93.68,3.25c0,2.13-.72,3.78-2.17,4.97-1.45,1.18-3.41,1.78-5.9,1.78Z"/>
        <path class="cls-3" d="m831.07,88.88v-2.3h11.01v2.3h-11.01Zm4.23,14.56v-23.96h2.55v23.96h-2.55Z"/>
        <path class="cls-3" d="m845.49,103.44v-16.86h2.55v16.86h-2.55Zm2.55-9.83l-1.04-.43c0-2.15.52-3.85,1.56-5.09s2.47-1.87,4.29-1.87c.84,0,1.6.15,2.3.45.69.3,1.34.77,1.94,1.42l-1.69,1.76c-.38-.43-.82-.74-1.31-.93s-1.05-.29-1.67-.29c-1.29,0-2.34.42-3.16,1.25-.81.84-1.22,2.08-1.22,3.73Z"/>
        <path class="cls-3" d="m866.36,103.8c-1.58,0-3-.39-4.27-1.17-1.27-.78-2.27-1.82-3.01-3.14-.74-1.31-1.11-2.8-1.11-4.45s.37-3.17,1.11-4.5c.74-1.33,1.74-2.38,3-3.16s2.67-1.17,4.25-1.17c1.29,0,2.44.26,3.46.77,1.02.51,1.85,1.23,2.49,2.15.65.92,1.03,1.99,1.15,3.21v5.27c-.14,1.22-.53,2.29-1.17,3.23-.63.93-1.45,1.66-2.46,2.17-1,.51-2.15.77-3.44.77Zm.39-2.4c1.77,0,3.18-.59,4.23-1.76,1.05-1.17,1.58-2.71,1.58-4.63,0-1.27-.24-2.38-.72-3.34-.48-.96-1.16-1.7-2.04-2.24s-1.91-.81-3.08-.81-2.22.27-3.14.82c-.92.55-1.65,1.3-2.19,2.26-.54.96-.81,2.06-.81,3.3s.27,2.34.81,3.3,1.27,1.71,2.21,2.26c.93.55,1.98.83,3.16.83Zm5.67,2.04v-4.52l.5-4.16-.5-4.05v-4.12h2.55v16.86h-2.55Z"/>
        <path class="cls-3" d="m878.09,88.88v-2.3h11.01v2.3h-11.01Zm4.23,14.56v-23.96h2.55v23.96h-2.55Z"/>
        <path class="cls-3" d="m899.57,103.8c-1.67,0-3.18-.38-4.52-1.15-1.34-.76-2.4-1.82-3.17-3.16-.78-1.34-1.17-2.84-1.17-4.52s.38-3.14,1.13-4.46,1.79-2.37,3.1-3.14c1.31-.76,2.79-1.15,4.41-1.15s2.92.35,4.11,1.04c1.18.69,2.12,1.66,2.8,2.89.68,1.23,1.02,2.65,1.02,4.25,0,.19-.01.41-.04.66s-.07.54-.14.88h-14.6v-2.15h13.2l-.9.79c.02-1.22-.19-2.28-.63-3.17s-1.08-1.6-1.9-2.1c-.83-.5-1.81-.75-2.96-.75-1.22,0-2.28.27-3.19.81-.91.54-1.62,1.28-2.13,2.22-.51.94-.77,2.05-.77,3.32s.27,2.43.81,3.41,1.29,1.75,2.26,2.29c.97.55,2.09.83,3.35.83,1,0,1.94-.19,2.8-.56.86-.37,1.59-.93,2.19-1.67l1.65,1.65c-.79.96-1.77,1.69-2.94,2.19s-2.43.75-3.77.75Z"/>
        <path class="cls-3" d="m918.26,103.27c-1.58,0-2.99-.37-4.23-1.11-1.24-.74-2.22-1.76-2.94-3.05-.72-1.29-1.08-2.75-1.08-4.38s.36-3.08,1.08-4.36c.72-1.28,1.7-2.29,2.94-3.03s2.64-1.11,4.2-1.11c1.31,0,2.49.25,3.51.75,1.03.5,1.87,1.21,2.51,2.13.65.92,1.03,2,1.15,3.25v4.77c-.14,1.22-.54,2.29-1.18,3.21-.65.92-1.48,1.64-2.49,2.15-1.02.51-2.17.77-3.46.77Zm-.18,7.64c-1.7,0-3.21-.32-4.54-.95-1.33-.63-2.4-1.52-3.21-2.67l1.65-1.65c.67.91,1.52,1.61,2.55,2.12s2.22.75,3.59.75c1.94,0,3.47-.51,4.59-1.54,1.12-1.03,1.69-2.43,1.69-4.2v-4.2l.5-3.84-.5-3.8v-4.34h2.55v16.17c0,1.63-.37,3.05-1.11,4.27-.74,1.22-1.78,2.17-3.12,2.85-1.34.68-2.88,1.02-4.63,1.02Zm.65-10.04c1.15,0,2.16-.25,3.05-.75.88-.5,1.57-1.21,2.04-2.13.48-.92.72-2,.72-3.25s-.25-2.25-.74-3.17c-.49-.92-1.17-1.64-2.04-2.15-.87-.51-1.9-.77-3.07-.77s-2.22.26-3.14.77c-.92.51-1.64,1.23-2.15,2.15-.51.92-.77,1.98-.77,3.17s.26,2.26.79,3.19c.53.93,1.24,1.66,2.15,2.17.91.51,1.96.77,3.16.77Z"/>
        <path class="cls-3" d="m937.62,103.55l-7.42-16.96h2.8l5.95,14.13h-1.04l6.24-14.13h2.83l-7.93,16.96h-1.43Zm-4.63,6.99l4.66-9.58,1.4,2.58-3.26,6.99h-2.8Z"/>
      </g>
      <g>
        <rect class="cls-2" x="68.04" width="32" height="120"/>
        <rect class="cls-4" x="135.04" width="31" height="120"/>
        <polygon class="cls-5" points="32.03 120 0 120 67.54 0 99.57 0 32.03 120"/>
        <polygon class="cls-6" points="99.58 120 68.06 120 134.52 0 166.04 0 99.58 120"/>
      </g>
    </g>
  </g>
</svg>