<svg width="54" height="36" viewBox="0 0 54 36" fill="none" xmlns="http://www.w3.org/2000/svg">
<path d="M39.8559 25.2637C36.5326 25.2637 33.8739 23.6856 31.9615 20.576L31.8449 20.3894L35.0361 17.688L35.1916 17.9484C35.9417 19.2195 36.6997 20.129 37.446 20.6421C38.1806 21.1396 39.098 21.3884 40.1708 21.3884C41.5701 21.3884 42.7634 20.8909 43.7118 19.9113C44.6641 18.9007 45.1461 17.653 45.1461 16.2032C45.1461 14.7533 44.668 13.4862 43.7312 12.5455C42.7906 11.5738 41.5973 11.084 40.1863 11.084C38.6121 11.084 37.2361 11.7837 36.0856 13.1636L36.0078 13.2568H34.7562L30.4922 0.266602H23.3752L15.9355 22.9121L9.89131 0.266602H0.356567L10.8203 35.3309H20.1218L27.0056 15.0099L32.7117 31.856C33.4152 33.9316 35.3626 35.3309 37.5587 35.3309H43.1909L47.1401 22.0997C46.9652 22.2979 46.7825 22.4962 46.5882 22.6827C44.8118 24.393 42.5496 25.2598 39.8598 25.2598L39.8559 25.2637ZM48.897 0.270489V3.83872H41.2824L40.2407 7.34866C40.2913 7.34477 40.3379 7.34088 40.3845 7.337C40.5556 7.32534 40.7111 7.32145 40.8549 7.32145C43.2959 7.32145 45.3249 8.16103 46.8913 9.81299C48.2518 11.2317 49.0331 13.012 49.2157 15.1226L53.6469 0.270489H48.8931H48.897Z" fill="white"/>
</svg>
