<?xml version="1.0" encoding="utf-8"?>
<!-- Generator: Adobe Illustrator 16.0.0, SVG Export Plug-In . SVG Version: 6.00 Build 0)  -->
<!DOCTYPE svg PUBLIC "-//W3C//DTD SVG 1.1//EN" "http://www.w3.org/Graphics/SVG/1.1/DTD/svg11.dtd">
<svg version="1.1" id="Layer_1" xmlns="http://www.w3.org/2000/svg" xmlns:xlink="http://www.w3.org/1999/xlink" x="0px" y="0px"
	 width="316.71px" height="101.32px" viewBox="0 0 316.71 101.32" enable-background="new 0 0 316.71 101.32" xml:space="preserve">
<linearGradient id="SVGID_1_" gradientUnits="userSpaceOnUse" x1="0" y1="50.6602" x2="138.1489" y2="50.6602">
	<stop  offset="0" style="stop-color:#FCF1B7"/>
	<stop  offset="0.25" style="stop-color:#E97225"/>
	<stop  offset="0.5" style="stop-color:#B72123"/>
	<stop  offset="0.75" style="stop-color:#79241B"/>
	<stop  offset="1" style="stop-color:#220000"/>
</linearGradient>
<path fill="url(#SVGID_1_)" d="M123.709,16.953c-2.637-0.758-5.294-1.42-7.967-1.983c-3.434-4.23-7.904-7.551-12.795-9.094
	L102.8,5.821c-27.167-7.762-55.886-7.762-83.052,0l-0.15,0.054C8.792,9.286,0,21.344,0,32.76v35.807
	c0.002,11.407,8.792,23.465,19.598,26.878l0.15,0.05c27.166,7.768,55.885,7.768,83.052,0l0.147-0.05
	c4.89-1.542,9.356-4.861,12.795-9.091c2.642-0.561,5.271-1.215,7.882-1.96c8.042-2.542,14.524-11.429,14.524-19.842V36.765
	C138.149,28.357,131.667,19.466,123.709,16.953z M22.966,84.645c-5.997-1.919-11.65-9.717-11.652-16.082V32.76
	c0-6.366,5.655-14.16,11.652-16.083c19.251-5.491,39.342-6.747,58.981-3.804c-7.468,0.631-14.888,1.969-22.167,4.049
	c-8.048,2.543-14.523,11.434-14.525,19.842v27.788c0,8.413,6.477,17.3,14.439,19.819c7.321,2.095,14.779,3.441,22.272,4.075
	C62.319,91.395,42.223,90.139,22.966,84.645z M111.235,68.567c0,4.432-2.754,9.561-6.451,12.915
	c-14.399,1.735-29.082,0.603-43.187-3.436c-5.06-1.602-9.744-8.045-9.744-13.494V36.765c0.002-5.452,4.687-11.892,9.83-13.525
	c14.035-4.008,28.69-5.137,43.111-3.398c3.691,3.36,6.441,8.482,6.441,12.918V68.567z M131.555,64.553
	c-0.003,5.449-4.687,11.893-9.833,13.528c-0.411,0.114-0.83,0.218-1.239,0.329c1.306-3.188,2.065-6.539,2.065-9.843V32.76
	c0-3.305-0.759-6.661-2.065-9.848c0.444,0.122,0.889,0.229,1.328,0.361c5.058,1.599,9.744,8.04,9.744,13.491V64.553z"/>
<g>
	<polygon fill="#1D1D1B" points="152.796,36.391 152.796,27.203 152.796,27.063 152.934,27.063 152.975,27.063 153.063,27.063 
		153.098,27.146 157.29,36.391 159.705,36.391 159.705,22.213 157.458,22.213 157.458,30.644 157.458,30.785 157.32,30.785 
		157.278,30.785 157.189,30.785 157.153,30.702 153.344,22.213 150.548,22.213 150.548,36.391 	"/>
	<path fill="#1D1D1B" d="M162.587,26.724v5.164c0,3.124,1.487,4.707,4.425,4.707c2.944,0,4.434-1.583,4.434-4.707v-5.164
		c0-3.126-1.489-4.716-4.434-4.716C164.074,22.007,162.587,23.598,162.587,26.724z M168.952,26.362v5.884
		c0,1.51-0.597,2.182-1.94,2.182c-1.34,0-1.938-0.672-1.938-2.182v-5.884c0-1.505,0.599-2.178,1.938-2.178
		C168.355,24.184,168.952,24.857,168.952,26.362z"/>
	<path fill="#1D1D1B" d="M176.65,36.391v-5.747V30.51h0.137h1.323h0.092l0.034,0.085l2.369,5.795h2.667l-2.645-6.254l-0.056-0.13
		l0.131-0.05c1.412-0.529,2.097-1.699,2.097-3.561c0-2.733-1.648-4.182-4.771-4.182h-3.865v14.178H176.65z M176.65,28.36v-4.002
		v-0.141h0.137h1.422c1.377,0,2.102,0.746,2.102,2.146c0,1.396-0.725,2.139-2.102,2.139h-1.422h-0.137V28.36z"/>
	<polygon fill="#1D1D1B" points="190.371,24.515 190.371,24.381 190.507,24.381 193.598,24.381 193.598,22.213 184.657,22.213 
		184.657,24.381 187.746,24.381 187.881,24.381 187.881,24.515 187.881,36.391 190.371,36.391 	"/>
	<polygon fill="#1D1D1B" points="195.872,36.391 198.363,36.391 198.363,30.288 198.363,30.145 198.501,30.145 202.403,30.145 
		202.539,30.145 202.539,30.288 202.539,36.391 205.03,36.391 205.03,22.213 202.539,22.213 202.539,27.84 202.539,27.978 
		202.403,27.978 198.501,27.978 198.363,27.978 198.363,27.84 198.363,22.213 195.872,22.213 	"/>
	<polygon fill="#1D1D1B" points="210.776,27.978 210.639,27.978 210.639,27.84 210.639,24.515 210.639,24.381 210.776,24.381 
		215.445,24.381 215.445,22.213 208.153,22.213 208.153,36.391 215.646,36.391 215.646,34.23 210.776,34.23 210.639,34.23 
		210.639,34.092 210.639,30.288 210.639,30.145 210.776,30.145 214.304,30.145 214.304,27.978 	"/>
	<path fill="#1D1D1B" d="M220.857,36.391v-5.747V30.51h0.135h1.32h0.093l0.036,0.085l2.368,5.795h2.665l-2.646-6.254l-0.052-0.13
		l0.132-0.05c1.408-0.529,2.095-1.699,2.095-3.561c0-2.733-1.65-4.182-4.77-4.182h-3.87v14.178H220.857z M220.857,28.36v-4.002
		v-0.141h0.135h1.421c1.373,0,2.103,0.746,2.103,2.146c0,1.396-0.729,2.139-2.103,2.139h-1.421h-0.135V28.36z"/>
	<polygon fill="#1D1D1B" points="232.106,36.391 232.106,27.203 232.106,27.063 232.248,27.063 232.289,27.063 232.379,27.063 
		232.414,27.146 236.604,36.391 239.017,36.391 239.017,22.213 236.771,22.213 236.771,30.644 236.771,30.785 236.635,30.785 
		236.596,30.785 236.505,30.785 236.467,30.702 232.657,22.213 229.864,22.213 229.864,36.391 	"/>
	<rect x="248.067" y="22.213" fill="#1D1D1B" width="2.491" height="14.178"/>
	<path fill="#1D1D1B" d="M256.164,36.391v-5.747V30.51h0.138h1.325h0.091l0.032,0.085l2.368,5.795h2.668l-2.643-6.254l-0.058-0.13
		l0.134-0.05c1.412-0.529,2.091-1.693,2.091-3.561c0-2.733-1.648-4.182-4.769-4.182h-3.866v14.178H256.164z M256.164,28.36v-4.002
		v-0.141h0.138h1.425c1.372,0,2.099,0.746,2.099,2.146c0,1.396-0.727,2.139-2.099,2.139h-1.425h-0.138V28.36z"/>
	<polygon fill="#1D1D1B" points="267.637,27.978 267.5,27.978 267.5,27.84 267.5,24.515 267.5,24.381 267.637,24.381 
		272.309,24.381 272.309,22.213 265.012,22.213 265.012,36.391 272.509,36.391 272.509,34.23 267.637,34.23 267.5,34.23 
		267.5,34.092 267.5,30.288 267.5,30.145 267.637,30.145 271.164,30.145 271.164,27.978 	"/>
	<polygon fill="#1D1D1B" points="275.226,36.391 282.163,36.391 282.163,34.23 277.854,34.23 277.717,34.23 277.717,34.092 
		277.717,22.213 275.226,22.213 	"/>
	<path fill="#1D1D1B" d="M286.894,22.213l-3.518,14.178h2.379l0.758-2.933l0.025-0.104h0.104h3.827h0.111l0.023,0.109l0.676,2.928
		h2.362l-3.42-14.178H286.894z M289.889,31.184h-2.742h-0.172l0.039-0.172l1.363-5.843l0.024-0.109h0.107h0.043h0.107l0.026,0.109
		l1.34,5.843l0.036,0.172H289.889z"/>
	<polygon fill="#1D1D1B" points="298.063,36.391 298.063,27.203 298.063,27.063 298.201,27.063 298.242,27.063 298.331,27.063 
		298.367,27.146 302.552,36.391 304.974,36.391 304.974,22.213 302.724,22.213 302.724,30.644 302.724,30.785 302.59,30.785 
		302.552,30.785 302.459,30.785 302.425,30.702 298.615,22.213 295.816,22.213 295.816,36.391 	"/>
	<path fill="#1D1D1B" d="M311.803,36.391c3.283,0,4.798-1.499,4.907-4.865c0,0,0-4.444,0-4.44c-0.109-3.372-1.624-4.872-4.907-4.872
		h-3.71v14.178H311.803z M310.582,24.515v-0.134h0.137h0.958c1.781,0,2.545,0.899,2.545,3.019v3.81c0,2.061-0.808,3.021-2.545,3.021
		h-0.958h-0.137v-0.139V24.515z"/>
	<g>
		<path fill="#1D1D1B" d="M160.565,79.445c-5.23,0-8.984-1.271-11.73-2.947l2.614-5.898c2.345,1.61,5.361,2.817,8.515,2.817
			c3.28,0,5.427-1.207,5.427-3.353c0-5.698-14.61-3.55-14.61-14.344c0-5.501,4.354-9.383,11.996-9.383
			c3.956,0,6.838,0.603,9.317,1.604v6.707c-2.749-1.077-5.631-2.08-8.983-2.08c-2.813,0-4.489,0.875-4.489,2.749
			c0,5.026,14.879,3.35,14.879,14.279C173.5,76.705,167.265,79.445,160.565,79.445z"/>
		<path fill="#1D1D1B" d="M191.416,79.445c-10.322,0-15.617-7.44-15.617-16.354c0-9.646,6.97-16.753,16.422-16.753
			c4.29,0,7.234,1.069,9.052,2.208l-0.139,6.57c-2.211-1.672-4.694-2.615-7.978-2.615c-5.431,0-9.315,4.291-9.315,10.189
			c0,5.43,2.946,10.257,9.251,10.257c3.014,0,5.294-0.942,7.509-2.216l2.01,5.299C200.063,77.77,195.771,79.445,191.416,79.445z"/>
		<path fill="#1D1D1B" d="M222.987,54.21c-1.342-0.804-2.185-0.703-3.189-0.703c-1.878,0-3.954,0.868-6.101,2.817V78.78h-8.043
			V47.073h6.769l0.876,3.348c3.282-2.876,5.763-4.083,8.776-4.083c1.543,0,3.221,0.468,4.43,1.336L222.987,54.21z"/>
		<path fill="#1D1D1B" d="M232.973,65.041c0.132,4.688,4.021,7.973,8.917,7.973c3.016,0,5.494-0.732,8.238-2.216l1.949,5.167
			c-3.552,2.476-7.78,3.48-11.532,3.48c-11.062,0-15.754-8.041-15.754-16.559c0-9.044,5.366-16.549,14.412-16.549
			c8.582,0,14.212,6.5,14.212,16.353c0,0.538,0,1.342,0,2.351H232.973z M239.003,52.367c-3.889,0-6.234,3.482-6.234,6.972h12.337
			C244.968,55.925,243.092,52.367,239.003,52.367z"/>
		<path fill="#1D1D1B" d="M264.089,65.041c0.134,4.688,4.021,7.973,8.913,7.973c3.02,0,5.498-0.732,8.246-2.216l1.945,5.167
			c-3.556,2.476-7.78,3.48-11.528,3.48c-11.062,0-15.753-8.041-15.753-16.559c0-9.044,5.361-16.549,14.411-16.549
			c8.577,0,14.208,6.5,14.208,16.353c0,0.538,0,1.342,0,2.351H264.089z M270.123,52.367c-3.888,0-6.234,3.482-6.234,6.972h12.333
			C276.084,55.925,274.208,52.367,270.123,52.367z"/>
		<path fill="#1D1D1B" d="M308.667,78.78V60.146c0-3.291-0.599-6.908-4.688-6.908c-2.815,0-5.566,1.475-8.045,3.354V78.78h-8.041
			V47.073h6.836l0.869,3.424c3.415-2.555,6.839-4.159,11.124-4.159c4.829,0,9.991,2.88,9.991,11.39V78.78H308.667z"/>
	</g>
</g>
</svg>
