<svg width="111" height="61" viewBox="0 0 111 61" fill="none" xmlns="http://www.w3.org/2000/svg">
<path d="M34.281 14.5806C35.2453 14.5806 36.0206 13.8018 36.0206 12.8436V3.50236C36.0206 2.54417 35.2406 1.76062 34.281 1.76062C33.3215 1.76062 32.5368 2.53945 32.5368 3.50236V12.8388C32.5368 13.797 33.3167 14.5759 34.281 14.5759V14.5806ZM39.6273 34.2401C40.5916 34.2401 41.3715 33.4612 41.3715 32.4983V19.8577C41.3715 18.8995 40.5916 18.116 39.6273 18.116C38.6629 18.116 37.8877 18.8948 37.8877 19.8577V32.4983C37.8877 33.4565 38.6677 34.2401 39.6273 34.2401ZM39.6273 15.7276C40.5916 15.7276 41.3715 14.9488 41.3715 13.9858V2.95954C41.3715 1.99663 40.5916 1.22252 39.6273 1.22252C38.6629 1.22252 37.8877 2.00135 37.8877 2.95954V13.9858C37.8877 14.9488 38.6677 15.7276 39.6273 15.7276ZM34.281 34.2401C35.2453 34.2401 36.0206 33.4612 36.0206 32.4983V18.7107C36.0206 17.7525 35.2406 16.969 34.281 16.969C33.3215 16.969 32.5368 17.7478 32.5368 18.7107V32.4983C32.5368 33.4565 33.3167 34.2401 34.281 34.2401ZM12.8914 16.1618C13.851 16.1618 14.6357 15.383 14.6357 14.4201V7.35873C14.6357 6.40054 13.8557 5.62171 12.8914 5.62171C11.9271 5.62171 11.1472 6.40054 11.1472 7.35873V14.4201C11.1472 15.383 11.9271 16.1618 12.8914 16.1618ZM2.19424 20.3628C3.15382 20.3628 3.93377 19.584 3.93377 18.621V10.5165C3.93377 9.55361 3.15382 8.77478 2.19424 8.77478C1.23466 8.77478 0.454712 9.55361 0.454712 10.5165V18.6163C0.454712 19.5792 1.23466 20.3581 2.19424 20.3581V20.3628ZM3.93377 32.503V24.4929C3.93377 23.5347 3.15382 22.7559 2.19424 22.7559C1.23466 22.7559 0.454712 23.5347 0.454712 24.4929V32.503C0.454712 33.4612 1.23466 34.2448 2.19424 34.2448C3.15382 34.2448 3.93377 33.4659 3.93377 32.503ZM7.95171 42.675H1.65062C1.38591 42.675 1.24884 42.8071 1.24884 43.0762V43.3216C1.24884 43.5765 1.38119 43.7229 1.65062 43.7229H4.20321V50.8503C4.20321 51.1194 4.33557 51.2515 4.59083 51.2515H4.99261C5.24786 51.2515 5.39439 51.1194 5.39439 50.8503V43.7229H7.94697C8.20223 43.7229 8.33459 43.5765 8.33459 43.3216V43.0762C8.33459 42.8119 8.20223 42.675 7.94697 42.675H7.95171ZM7.54046 20.6885C6.57616 20.6885 5.7962 21.4673 5.7962 22.4302V32.5078C5.7962 33.4659 6.57616 34.2495 7.54046 34.2495C8.50477 34.2495 9.28472 33.4707 9.28472 32.5078V22.4302C9.28472 21.4673 8.50477 20.6885 7.54046 20.6885ZM44.9735 17.3419C45.9378 17.3419 46.7177 16.563 46.7177 15.6001V2.46392C46.7177 1.50573 45.9378 0.726904 44.9735 0.726904C44.0092 0.726904 43.2339 1.50573 43.2339 2.46392V15.5907C43.2339 16.5536 44.0139 17.3324 44.9735 17.3324V17.3419ZM18.2376 14.5664C19.1972 14.5664 19.9772 13.7876 19.9772 12.8294V6.37222C19.9772 5.4093 19.1972 4.63048 18.2376 4.63048C17.2781 4.63048 16.4934 5.4093 16.4934 6.37222V12.82C16.4934 13.7782 17.2733 14.557 18.2376 14.557V14.5664ZM12.8914 34.2448C13.851 34.2448 14.6357 33.4659 14.6357 32.503V20.2967C14.6357 19.3385 13.8557 18.5597 12.8914 18.5597C11.9271 18.5597 11.1472 19.3385 11.1472 20.2967V32.503C11.1472 33.4612 11.9271 34.2448 12.8914 34.2448ZM28.9348 13.9245C29.8991 13.9245 30.6743 13.1456 30.6743 12.1875V4.24342C30.6743 3.28051 29.8944 2.50169 28.9348 2.50169C27.9752 2.50169 27.1905 3.28051 27.1905 4.24342V12.1827C27.1905 13.1409 27.9705 13.9198 28.9348 13.9198V13.9245ZM98.4546 34.2448C99.4142 34.2448 100.199 33.4659 100.199 32.503V29.6898C100.199 28.7269 99.4189 27.9481 98.4546 27.9481C97.4903 27.9481 96.7103 28.7269 96.7103 29.6898V32.503C96.7103 33.4612 97.4903 34.2448 98.4546 34.2448ZM103.801 34.2448C104.76 34.2448 105.545 33.4659 105.545 32.503V28.0991C105.545 27.1362 104.765 26.3574 103.801 26.3574C102.836 26.3574 102.061 27.1362 102.061 28.0991V32.503C102.061 33.4612 102.841 34.2448 103.801 34.2448ZM98.4546 25.5597C99.4142 25.5597 100.199 24.7808 100.199 23.8179V7.35873C100.199 6.40054 99.4189 5.62171 98.4546 5.62171C97.4903 5.62171 96.7103 6.40054 96.7103 7.35873V23.8132C96.7103 24.7714 97.4903 25.555 98.4546 25.555V25.5597ZM103.801 23.969C104.76 23.969 105.545 23.1902 105.545 22.2272V9.03911C105.545 8.0762 104.765 7.29737 103.801 7.29737C102.836 7.29737 102.061 8.0762 102.061 9.03911V22.2225C102.061 23.1854 102.841 23.9643 103.801 23.9643V23.969ZM7.54519 7.29737C6.58089 7.29737 5.80093 8.0762 5.80093 9.03911V16.5536C5.80093 17.5165 6.58089 18.2953 7.54519 18.2953C8.5095 18.2953 9.28945 17.5165 9.28945 16.5536V9.03911C9.28945 8.0762 8.5095 7.29737 7.54519 7.29737ZM109.152 21.5145C110.111 21.5145 110.891 20.7357 110.891 19.7775V10.5165C110.891 9.55361 110.111 8.77478 109.152 8.77478C108.192 8.77478 107.407 9.55361 107.407 10.5165V19.7728C107.407 20.7309 108.187 21.5098 109.152 21.5098V21.5145ZM105.153 42.996L102.34 50.7606C102.246 51.0391 102.364 51.2232 102.666 51.2232H103.078C103.3 51.2232 103.456 51.1146 103.517 50.8975L104.269 48.764H107.497L108.263 50.8975C108.334 51.1146 108.481 51.2232 108.712 51.2232H109.123C109.416 51.2232 109.549 51.0391 109.45 50.7606L106.637 42.996C106.561 42.7694 106.405 42.6703 106.188 42.6703H105.607C105.375 42.6703 105.228 42.7694 105.157 42.996H105.153ZM105.881 43.8409H105.904C105.904 43.8409 106.089 44.6197 106.235 45.0539L107.181 47.768H104.585L105.545 45.0539C105.692 44.6197 105.885 43.8409 105.885 43.8409H105.881ZM109.152 34.2353C110.111 34.2353 110.891 33.4565 110.891 32.4936V25.6446C110.891 24.6817 110.111 23.9029 109.152 23.9029C108.192 23.9029 107.407 24.6817 107.407 25.6446V32.4936C107.407 33.4518 108.187 34.2353 109.152 34.2353ZM87.7621 27.2259C88.7217 27.2259 89.5017 26.4471 89.5017 25.4842V5.22994C89.5017 4.26703 88.7217 3.49292 87.7621 3.49292C86.8026 3.49292 86.0179 4.27175 86.0179 5.22994V25.4889C86.0179 26.4518 86.7978 27.2306 87.7621 27.2306V27.2259ZM71.7187 25.5502C72.6783 25.5502 73.4583 24.7714 73.4583 23.8085V2.95954C73.4583 1.99663 72.6783 1.22252 71.7187 1.22252C70.7592 1.22252 69.9745 2.00135 69.9745 2.95954V23.8132C69.9745 24.7714 70.7544 25.555 71.7187 25.555V25.5502ZM61.0216 22.2131C61.9811 22.2131 62.7611 21.4343 62.7611 20.4713V2.02023C62.7611 1.05732 61.9811 0.278489 61.0216 0.278489C60.062 0.278489 59.2773 1.05732 59.2773 2.02023V20.4761C59.2773 21.439 60.0573 22.2178 61.0216 22.2178V22.2131ZM82.4112 34.2353C83.3708 34.2353 84.1507 33.4565 84.1507 32.4936V31.2428C84.1507 30.2798 83.3708 29.501 82.4112 29.501C81.4516 29.501 80.667 30.2798 80.667 31.2428V32.4936C80.667 33.4518 81.4469 34.2353 82.4112 34.2353ZM92.0212 43.7087C92.2906 43.7087 92.423 43.5624 92.423 43.3075V43.0668C92.423 42.8024 92.2906 42.6655 92.0212 42.6655H87.8472C87.5778 42.6655 87.4454 42.7977 87.4454 43.0668V50.8173C87.4454 51.0863 87.5778 51.2185 87.8472 51.2185H92.2244C92.4938 51.2185 92.6262 51.0863 92.6262 50.8173V50.5765C92.6262 50.3122 92.4938 50.1753 92.2244 50.1753H88.6367V47.4282H91.3168C91.5721 47.4282 91.7186 47.296 91.7186 47.027V46.7862C91.7186 46.5172 91.5721 46.385 91.3168 46.385H88.6367V43.7087H92.0212ZM82.4112 27.1126C83.3708 27.1126 84.1507 26.3338 84.1507 25.3756V4.24342C84.1507 3.28051 83.3708 2.50169 82.4112 2.50169C81.4516 2.50169 80.667 3.28051 80.667 4.24342V25.3756C80.667 26.3338 81.4469 27.1126 82.4112 27.1126ZM55.6706 34.2353C56.6302 34.2353 57.4102 33.4565 57.4102 32.4936V24.4835C57.4102 23.5253 56.6302 22.7465 55.6706 22.7465C54.7111 22.7465 53.9264 23.5253 53.9264 24.4835V32.4936C53.9264 33.4518 54.7063 34.2353 55.6706 34.2353ZM93.1037 26.8294C94.0632 26.8294 94.8432 26.0506 94.8432 25.0877V6.37222C94.8432 5.4093 94.0632 4.63048 93.1037 4.63048C92.1441 4.63048 91.3594 5.4093 91.3594 6.37222V25.0924C91.3594 26.0506 92.1393 26.8341 93.1037 26.8341V26.8294ZM55.6706 20.3533C56.6302 20.3533 57.4102 19.5745 57.4102 18.6116V1.77006C57.4102 0.807147 56.6302 0.0283203 55.6706 0.0283203C54.7111 0.0283203 53.9264 0.807147 53.9264 1.77006V18.6163C53.9264 19.5792 54.7063 20.3581 55.6706 20.3581V20.3533ZM87.7574 34.2353C88.717 34.2353 89.497 33.4565 89.497 32.4936V31.356C89.497 30.3978 88.717 29.619 87.7574 29.619C86.7979 29.619 86.0132 30.3978 86.0132 31.356V32.4936C86.0132 33.4518 86.7931 34.2353 87.7574 34.2353ZM88.5043 58.0958V58.0863C88.8494 57.9164 89.081 57.5718 89.081 57.1092C89.081 56.4059 88.5705 55.9811 87.8567 55.9811H86.4764C86.3724 55.9811 86.3251 56.0378 86.3251 56.1369V60.3048C86.3251 60.4039 86.3724 60.4653 86.4764 60.4653H87.9087C88.6603 60.4653 89.2559 60.0074 89.2559 59.2097C89.2559 58.6669 88.9628 58.2232 88.5043 58.0958ZM86.7647 56.3729H87.852C88.3294 56.3729 88.6177 56.6844 88.6177 57.1423C88.6177 57.6001 88.3105 57.9305 87.8567 57.9305H86.7647V56.3729ZM87.9181 60.0688H86.7647V58.3082H87.9087C88.4334 58.3082 88.7973 58.6574 88.7973 59.2003C88.7973 59.7431 88.4617 60.0688 87.9181 60.0688ZM84.3445 47.9002C84.198 47.6359 84.0893 47.5132 84.0893 47.5132V47.4895C85.0347 47.1733 85.6161 46.2293 85.6161 45.1389C85.6161 44.0486 85.082 43.2603 84.2689 42.8968C83.9144 42.7411 83.5031 42.6655 82.6665 42.6655H80.3597C80.0902 42.6655 79.9579 42.7977 79.9579 43.0668V50.8173C79.9579 51.0863 80.0902 51.2185 80.3597 51.2185H80.7473C81.012 51.2185 81.1491 51.0863 81.1491 50.8173V47.8152H82.9832L84.6565 50.9447C84.7558 51.1382 84.9023 51.2232 85.1292 51.2232H85.6114C85.9139 51.2232 86.0368 51.0297 85.8808 50.7512L84.3398 47.9049L84.3445 47.9002ZM82.8745 46.7721H81.1491V43.7087H82.5814C83.1297 43.7087 83.3802 43.7559 83.6024 43.855C84.1365 44.0863 84.4013 44.5678 84.4013 45.1861C84.4013 46.1443 83.8057 46.7721 82.8745 46.7721ZM77.0603 29.0243C76.096 29.0243 75.316 29.8031 75.316 30.766V32.4936C75.316 33.4518 76.096 34.2353 77.0603 34.2353C78.0246 34.2353 78.8045 33.4565 78.8045 32.4936V30.766C78.8045 29.8031 78.0246 29.0243 77.0603 29.0243ZM75.8502 42.9912C75.7792 42.7647 75.6185 42.6655 75.4011 42.6655H74.8196C74.588 42.6655 74.4415 42.7647 74.3706 42.9912L71.558 50.7559C71.4588 51.0344 71.5817 51.2185 71.8842 51.2185H72.2954C72.5129 51.2185 72.6736 51.1099 72.7351 50.8928L73.4867 48.7593H76.7104L77.4762 50.8928C77.5471 51.1099 77.6937 51.2185 77.9253 51.2185H78.3365C78.6296 51.2185 78.762 51.0344 78.6627 50.7559L75.8454 42.9912H75.8502ZM73.7986 47.7633L74.7582 45.0492C74.9048 44.615 75.0985 43.8361 75.0985 43.8361H75.1222C75.1222 43.8361 75.3018 44.615 75.4531 45.0492L76.3985 47.7633H73.8034H73.7986ZM77.0603 1.7559C76.096 1.7559 75.316 2.53473 75.316 3.49764V24.8941C75.316 25.857 76.096 26.6359 77.0603 26.6359C78.0246 26.6359 78.8045 25.857 78.8045 24.8941V3.50236C78.8045 2.54417 78.0246 1.76062 77.0603 1.76062V1.7559ZM92.8437 60.0641H90.7969V58.3978H92.3426C92.4419 58.3978 92.5033 58.3459 92.5033 58.2421V58.1618C92.5033 58.058 92.4466 58.0013 92.3426 58.0013H90.7969V56.3729H92.7255C92.8295 56.3729 92.8862 56.3115 92.8862 56.2124V56.1369C92.8862 56.0378 92.8247 55.9811 92.7255 55.9811H90.5085C90.4092 55.9811 90.3573 56.0378 90.3573 56.1369V60.3048C90.3573 60.4039 90.4092 60.4653 90.5085 60.4653H92.8437C92.9429 60.4653 93.0044 60.4039 93.0044 60.3048V60.2293C93.0044 60.1254 92.9476 60.0688 92.8437 60.0688V60.0641ZM96.3842 60.0641H94.4603V56.1322C94.4603 56.033 94.4036 55.9764 94.309 55.9764H94.1719C94.0679 55.9764 94.016 56.033 94.016 56.1322V60.3001C94.016 60.3992 94.0679 60.4606 94.1719 60.4606H96.3842C96.4882 60.4606 96.5449 60.3992 96.5449 60.3001V60.2245C96.5449 60.1207 96.4882 60.0641 96.3842 60.0641ZM102.009 56.0991C101.986 56.0094 101.919 55.9764 101.834 55.9764H101.622C101.541 55.9764 101.48 56.0094 101.451 56.0991L99.9058 60.2765C99.8727 60.3898 99.92 60.4653 100.038 60.4653H100.175C100.265 60.4653 100.331 60.4275 100.355 60.3378L100.828 59.0351H102.633L103.111 60.3378C103.139 60.4275 103.2 60.4653 103.29 60.4653H103.432C103.546 60.4653 103.588 60.3945 103.56 60.2765L102.014 56.0991H102.009ZM100.955 58.6527L101.555 57.0196C101.626 56.8072 101.73 56.4343 101.73 56.4343H101.745C101.745 56.4343 101.839 56.8072 101.91 57.0196L102.506 58.6527H100.96H100.955ZM94.8526 32.4936V30.9595C94.8526 29.9966 94.0727 29.2178 93.1131 29.2178C92.1535 29.2178 91.3688 29.9966 91.3688 30.9595V32.4936C91.3688 33.4518 92.1488 34.2353 93.1131 34.2353C94.0774 34.2353 94.8526 33.4565 94.8526 32.4936ZM110.844 55.9717H107.493C107.389 55.9717 107.337 56.033 107.337 56.1322V56.203C107.337 56.3068 107.389 56.3635 107.493 56.3635H108.944V60.3001C108.944 60.3992 109 60.4606 109.104 60.4606H109.237C109.336 60.4606 109.388 60.3992 109.388 60.3001V56.3635H110.849C110.953 56.3635 111.009 56.3068 111.009 56.203V56.1322C111.009 56.033 110.953 55.9717 110.849 55.9717H110.844ZM104.628 57.0715C104.628 56.5995 105.058 56.3162 105.573 56.3162C105.98 56.3162 106.278 56.5003 106.434 56.6042C106.519 56.6514 106.599 56.6514 106.656 56.557L106.717 56.4531C106.769 56.3729 106.75 56.2974 106.675 56.2454C106.509 56.118 106.117 55.8962 105.583 55.8962C104.798 55.8962 104.174 56.3587 104.174 57.0951C104.174 58.4828 106.41 58.2185 106.41 59.3419C106.41 59.8139 106.032 60.1113 105.498 60.1113C104.992 60.1113 104.619 59.8469 104.463 59.7195C104.373 59.6581 104.302 59.6676 104.24 59.7431L104.165 59.8375C104.103 59.9272 104.118 59.998 104.184 60.0641C104.368 60.2151 104.841 60.5361 105.503 60.5361C106.358 60.5361 106.869 59.9933 106.869 59.3088C106.869 57.8645 104.628 58.1524 104.628 57.0715ZM73.463 32.4936V29.6804C73.463 28.7175 72.6831 27.9386 71.7235 27.9386C70.7639 27.9386 69.9792 28.7175 69.9792 29.6804V32.4936C69.9792 33.4518 70.7592 34.2353 71.7235 34.2353C72.6878 34.2353 73.463 33.4565 73.463 32.4936ZM100.634 51.2185C100.898 51.2185 101.031 51.0863 101.031 50.8173V43.0668C101.031 42.8024 100.898 42.6655 100.634 42.6655H100.246C99.9909 42.6655 99.849 42.7977 99.849 43.0668V48.2259C99.849 48.6979 99.92 49.4626 99.92 49.4626H99.8963C99.8963 49.4626 99.4945 48.6885 99.192 48.2259L95.538 42.9299C95.4199 42.7363 95.2828 42.6655 95.0512 42.6655H94.5926C94.3279 42.6655 94.1909 42.7977 94.1909 43.0668V50.8173C94.1909 51.0863 94.3232 51.2185 94.5926 51.2185H94.9803C95.245 51.2185 95.382 51.0863 95.382 50.8173V45.6676C95.382 45.1814 95.3064 44.4214 95.3064 44.4214H95.33C95.33 44.4214 95.7318 45.2003 96.0344 45.6676L99.6978 50.9494C99.8065 51.143 99.953 51.2185 100.17 51.2185H100.634ZM99.5512 55.9764H97.4997C97.3958 55.9764 97.3485 56.033 97.3485 56.1322V60.3001C97.3485 60.3992 97.4005 60.4606 97.4997 60.4606H97.6368C97.7314 60.4606 97.7881 60.3992 97.7881 60.3001V58.4498H99.2818C99.3858 58.4498 99.4378 58.3884 99.4378 58.2846V58.2043C99.4378 58.1005 99.3858 58.0533 99.2818 58.0533H97.7881V56.3682H99.5512C99.6552 56.3682 99.712 56.3068 99.712 56.2077V56.1322C99.712 56.033 99.6552 55.9764 99.5512 55.9764ZM30.6838 32.4936V18.0452C30.6838 17.0823 29.9038 16.3034 28.9442 16.3034C27.9847 16.3034 27.2 17.0823 27.2 18.0452V32.4936C27.2 33.4518 27.9799 34.2353 28.9442 34.2353C29.9085 34.2353 30.6838 33.4565 30.6838 32.4936ZM15.9781 42.6655H15.5763C15.3211 42.6655 15.1745 42.7977 15.1745 43.0668V46.4417H10.7123V43.0668C10.7123 42.8024 10.5799 42.6655 10.3105 42.6655H9.92285C9.65341 42.6655 9.52107 42.7977 9.52107 43.0668V50.8409C9.52107 51.1099 9.65341 51.2421 9.92285 51.2421H10.3105C10.5799 51.2421 10.7123 51.1099 10.7123 50.8409V47.4754H15.1745V50.8409C15.1745 51.1099 15.3211 51.2421 15.5763 51.2421H15.9781C16.2334 51.2421 16.3657 51.1099 16.3657 50.8409V43.0668C16.3657 42.8024 16.2334 42.6655 15.9781 42.6655ZM35.2264 37.6858C35.1792 37.6763 35.1413 37.6763 35.1413 37.6858C35.1413 37.6905 35.1602 37.7047 35.2217 37.7235C35.8551 37.9076 36.9234 38.356 36.9234 39.2812C36.9234 42.5145 27.9611 42.4012 27.9611 48.8442C27.9611 54.3432 33.7138 55.7829 35.4061 56.0897C35.4959 56.1038 35.5478 56.0897 35.4155 56.0519C34.7821 55.8678 33.7138 55.4194 33.7138 54.4896C33.7138 51.2562 42.6761 51.3695 42.6761 44.9265C42.6761 39.4275 36.9281 37.9879 35.2311 37.6811L35.2264 37.6858ZM30.5278 51.615C30.5751 52.1578 30.7216 52.6392 30.939 53.0641C29.6391 51.969 28.9821 50.5529 28.9821 48.8442C28.9821 45.7053 31.5488 44.4309 34.0352 43.1942C35.978 42.2313 37.8121 41.3203 37.9397 39.4842C37.9397 39.4134 37.935 39.3473 37.9208 39.2859C38.7905 39.673 40.4545 40.6123 40.4545 42.1558C40.4545 46.4936 30.1733 47.4565 30.5325 51.6102L30.5278 51.615ZM23.5933 3.4882C22.6337 3.4882 21.8538 4.26703 21.8538 5.22522V12.0789C21.8538 13.0371 22.6337 13.8159 23.5933 13.8159C24.5529 13.8159 25.3375 13.0371 25.3375 12.0789V5.22994C25.3375 4.26703 24.5576 3.49292 23.5933 3.49292V3.4882ZM23.5933 16.209C22.6337 16.209 21.8538 16.9879 21.8538 17.9508V32.4983C21.8538 33.4565 22.6337 34.2401 23.5933 34.2401C24.5529 34.2401 25.3375 33.4612 25.3375 32.4983V17.9508C25.3375 16.9879 24.5576 16.209 23.5933 16.209ZM19.9866 32.4936V18.6871C19.9866 17.7289 19.2066 16.9454 18.2471 16.9454C17.2875 16.9454 16.5028 17.7242 16.5028 18.6871V32.4936C16.5028 33.4518 17.2828 34.2353 18.2471 34.2353C19.2114 34.2353 19.9866 33.4565 19.9866 32.4936ZM46.7272 32.4936V21.4626C46.7272 20.4997 45.9472 19.7208 44.9829 19.7208C44.0186 19.7208 43.2434 20.4997 43.2434 21.4626V32.4936C43.2434 33.4518 44.0233 34.2353 44.9829 34.2353C45.9425 34.2353 46.7272 33.4565 46.7272 32.4936ZM23.3475 50.1942H19.7455V47.4376H22.4352C22.6905 47.4376 22.837 47.3055 22.837 47.0364V46.791C22.837 46.5219 22.6905 46.3898 22.4352 46.3898H19.7455V43.7087H23.1395C23.4042 43.7087 23.5413 43.5624 23.5413 43.3075V43.062C23.5413 42.7977 23.409 42.6608 23.1395 42.6608H18.9561C18.6914 42.6608 18.5543 42.793 18.5543 43.062V50.8361C18.5543 51.1052 18.6914 51.2374 18.9561 51.2374H23.3475C23.6122 51.2374 23.7493 51.1052 23.7493 50.8361V50.5954C23.7493 50.3264 23.6122 50.1942 23.3475 50.1942ZM50.3339 21.2926C49.3696 21.2926 48.5896 22.0715 48.5896 23.0344V32.4983C48.5896 33.4565 49.3696 34.2401 50.3339 34.2401C51.2982 34.2401 52.0734 33.4612 52.0734 32.4983V23.0344C52.0734 22.0762 51.2934 21.2926 50.3339 21.2926ZM63.4465 42.5334C61.1445 42.5334 59.4286 44.2704 59.4286 46.9562C59.4286 49.4626 61.1728 51.379 63.716 51.379C65.0112 51.379 65.9707 50.8267 66.4482 50.4774C66.7318 50.2697 66.7649 50.029 66.6089 49.7458L66.4671 49.4956C66.3016 49.2077 65.9896 49.1227 65.7486 49.3115C65.3799 49.5947 64.6945 49.9818 63.8152 49.9818C62.416 49.9818 61.0594 49.1086 60.9365 47.2866H66.4056C66.6892 47.2866 66.9398 47.1403 66.9965 46.8665C67.0059 46.8334 67.0107 46.7957 67.0107 46.7532C67.0107 44.4592 65.8147 42.5381 63.4512 42.5381L63.4465 42.5334ZM60.9885 46.0546C61.1303 44.6244 62.2317 43.8031 63.4135 43.8031C64.9261 43.8031 65.5879 45.1295 65.5879 46.0546H60.9838H60.9885ZM47.2424 44.9359C47.2424 44.2185 47.8617 43.8692 48.6605 43.8692C49.4594 43.8692 50.0313 44.1618 50.3811 44.3554C50.6695 44.5111 50.9247 44.4734 51.1186 44.1713L51.2698 43.9211C51.4447 43.6237 51.388 43.3736 51.0855 43.1848C50.6837 42.9346 49.9132 42.5334 48.7456 42.5334C47.0912 42.5334 45.6873 43.3688 45.6873 44.969C45.6873 47.8247 50.0503 47.2724 50.0503 48.9245C50.0503 49.6419 49.4499 50.0432 48.6132 50.0432C47.6253 50.0432 46.9257 49.6089 46.5381 49.3587C46.2498 49.1699 45.985 49.1841 45.7676 49.4767L45.6021 49.708C45.4131 49.9865 45.4367 50.2508 45.7203 50.4633C46.193 50.8125 47.1573 51.379 48.5612 51.379C50.3811 51.379 51.6054 50.3264 51.6054 48.8914C51.6054 46.0216 47.2424 46.621 47.2424 44.9359ZM61.031 34.2353C61.9906 34.2353 62.7706 33.4565 62.7706 32.4936V26.3432C62.7706 25.385 61.9906 24.6015 61.031 24.6015C60.0715 24.6015 59.2868 25.3803 59.2868 26.3432V32.4936C59.2868 33.4518 60.0667 34.2353 61.031 34.2353ZM66.3773 26.3527C65.4177 26.3527 64.633 27.1315 64.633 28.0944V32.4983C64.633 33.4565 65.4129 34.2401 66.3773 34.2401C67.3416 34.2401 68.1215 33.4612 68.1215 32.4983V28.0944C68.1215 27.1315 67.3416 26.3527 66.3773 26.3527ZM66.3773 0.726904C65.4177 0.726904 64.633 1.50573 64.633 2.46392V22.2225C64.633 23.1854 65.4129 23.9643 66.3773 23.9643C67.3416 23.9643 68.1215 23.1854 68.1215 22.2225V2.46392C68.1215 1.50573 67.3416 0.726904 66.3773 0.726904ZM50.3339 0.283209C49.3696 0.283209 48.5896 1.06204 48.5896 2.02495V17.1625C48.5896 18.1207 49.3696 18.8995 50.3339 18.8995C51.2982 18.8995 52.0734 18.1207 52.0734 17.1625V2.02023C52.0734 1.05732 51.2934 0.278489 50.3339 0.278489V0.283209ZM54.2195 44.9359C54.2195 44.2185 54.8387 43.8692 55.6423 43.8692C56.4459 43.8692 57.0084 44.1618 57.3629 44.3554C57.6465 44.5111 57.9065 44.4734 58.1003 44.1713L58.2516 43.9211C58.4265 43.6237 58.3697 43.3736 58.0672 43.1848C57.6654 42.9346 56.8997 42.5334 55.7274 42.5334C54.0729 42.5334 52.669 43.3688 52.669 44.969C52.669 47.8247 57.032 47.2724 57.032 48.9245C57.032 49.6419 56.4269 50.0432 55.595 50.0432C54.6071 50.0432 53.9075 49.6089 53.5198 49.3587C53.2315 49.1699 52.9668 49.1841 52.7493 49.4767L52.5839 49.708C52.3996 49.9865 52.4232 50.2508 52.7021 50.4633C53.1748 50.8125 54.1391 51.379 55.543 51.379C57.3629 51.379 58.5825 50.3264 58.5825 48.8914C58.5825 46.0216 54.2195 46.621 54.2195 44.9359Z" fill="white"/>
</svg>
