<?xml version="1.0" encoding="UTF-8"?>
<svg id="Layer_2" data-name="Layer 2" xmlns="http://www.w3.org/2000/svg" viewBox="0 0 31.76 45.58">
  <defs>
    <style>
      .cls-1 {
        fill: #e94335;
      }

      .cls-1, .cls-2, .cls-3, .cls-4, .cls-5 {
        stroke-width: 0px;
      }

      .cls-2 {
        fill: #4284f3;
      }

      .cls-3 {
        fill: #34a753;
      }

      .cls-4 {
        fill: #fabb04;
      }

      .cls-5 {
        fill: #1a72e7;
      }
    </style>
  </defs>
  <g id="Layer_1-2" data-name="Layer 1">
    <g>
      <path class="cls-3" d="m31.76,14.4v3.31c-.07.01-.05.07-.05.11-.1,1.14-.31,2.27-.63,3.37-.54,1.87-1.4,3.59-2.45,5.22-1,1.54-2.13,2.98-3.27,4.41-1.28,1.6-2.56,3.2-3.74,4.88-.83,1.18-1.64,2.38-2.31,3.67-.68,1.29-1.17,2.66-1.6,4.05-.15.47-.29.94-.53,1.38-.18.33-.41.6-.79.72-.02,0-.06.01-.04.05h-.85s0-.04-.03-.05c-.44-.13-.68-.46-.87-.85-.25-.52-.41-1.08-.58-1.63-.59-1.91-1.4-3.73-2.5-5.41-.84-1.29-1.71-2.56-2.64-3.79-.03-.04-.05-.08-.08-.12,1.01-1.2,2.03-2.41,3.04-3.61,1.48-1.76,2.96-3.52,4.44-5.28,1.24-1.47,2.48-2.94,3.71-4.41.02-.03.05-.05.05-.09,0,0,0,0,0,0,.02,0,.03,0,.03-.03h0s.03,0,.03-.03h0s.02-.02.03-.03h0s.02-.01.03-.02c.02-.02.04-.05.06-.07.27-.29.53-.59.75-.91.02,0,.03,0,.04-.03h0s.04-.02.03-.05h0s.06-.02.08-.05c.66-.78,1.32-1.56,1.98-2.35.92-1.09,1.83-2.18,2.75-3.27.87-1.03,1.74-2.07,2.61-3.1.51-.61,1.03-1.22,1.55-1.83,0,.01.02.03.03.04.9,1.78,1.47,3.66,1.68,5.65,0,.04-.02.1.05.11Z"/>
      <path class="cls-5" d="m15.16,0C15.63,0,16.1,0,16.57,0c0,0,0,0,0,.01,0,0,0,0,0,0,.03.03.07.02.11.03.8.04,1.59.14,2.38.3.56.11,1.11.25,1.65.44-.06.13-.17.22-.26.33-.32.38-.64.75-.96,1.13-.36.42-.71.85-1.07,1.27-.42.49-.83.98-1.25,1.47-.42.49-.83.99-1.25,1.48-.32.38-.65.77-.97,1.15-.35.42-.7.83-1.06,1.25-.32.38-.64.75-.96,1.13-.37.44-.74.88-1.12,1.32-.04.04-.07.08-.06.14-.02.01-.03.03-.05.04-.02,0-.04,0-.03.03-.16.16-.3.33-.48.48-.26-.22-.51-.44-.77-.66-.18-.15-.35-.29-.53-.44-.25-.22-.52-.43-.78-.65-.23-.2-.47-.39-.7-.6-.25-.22-.51-.42-.77-.64-.24-.2-.48-.41-.72-.61-.26-.22-.52-.43-.78-.65-.18-.15-.37-.3-.54-.46-.25-.22-.51-.43-.77-.64-.2-.17-.4-.33-.6-.5-.17-.15-.34-.3-.52-.45.03-.03.05-.07.08-.1,1.36-1.59,2.96-2.86,4.82-3.82,1.57-.81,3.24-1.35,5-1.6.48-.07.96-.12,1.45-.14.03,0,.09.03.1-.04Z"/>
      <path class="cls-1" d="m3.72,5.71c.17.15.34.3.52.45.2.17.4.33.6.5.26.21.52.42.77.64.18.16.36.31.54.46.26.22.52.43.78.65.24.2.48.41.72.61.25.21.52.42.77.64.23.2.47.4.7.6.26.22.52.42.78.65.17.15.35.3.53.44.26.22.51.44.77.66-.13.18-.26.35-.38.53-.03,0-.04.03-.04.06h0s-.03,0-.03.03h0c-.06,0-.08.06-.12.1-.82.97-1.63,1.94-2.45,2.91-.85,1.01-1.7,2.02-2.55,3.04-.96,1.14-1.92,2.29-2.88,3.43-.39.46-.77.91-1.16,1.37-.18-.3-.29-.63-.42-.96-.29-.74-.52-1.49-.7-2.26-.1-.45-.18-.9-.26-1.35-.07-.42-.1-.85-.15-1.27-.01-.08,0-.17,0-.25,0-.03.02-.09-.05-.08v-2.49c.07-.02.04-.09.05-.13.04-.52.11-1.04.2-1.56.39-2.17,1.2-4.17,2.43-6.01.32-.48.66-.96,1.05-1.39Z"/>
      <path class="cls-4" d="m1.59,23.45c.39-.46.78-.91,1.16-1.37.96-1.14,1.92-2.29,2.88-3.43.85-1.01,1.7-2.02,2.55-3.04.82-.97,1.63-1.94,2.45-2.91.03-.04.05-.1.12-.1-.01.03-.03.06-.04.09-.85,1.41-1.09,2.92-.75,4.52.53,2.48,2.61,4.38,5.11,4.7,1.86.24,3.5-.27,4.91-1.52.02-.02.04-.06.08-.05,0,.04-.03.06-.05.09-1.24,1.47-2.48,2.94-3.71,4.41-1.48,1.76-2.96,3.52-4.44,5.28-1.01,1.2-2.03,2.41-3.04,3.61-.26-.29-.49-.61-.73-.92-1.1-1.4-2.24-2.78-3.31-4.21-1.05-1.4-2.04-2.84-2.83-4.41-.12-.25-.25-.49-.35-.75Z"/>
      <path class="cls-2" d="m20.7.78c.53.15,1.03.35,1.53.57,3.39,1.5,5.97,3.88,7.72,7.15.02.03.03.06.04.1-.52.61-1.03,1.22-1.55,1.83-.87,1.03-1.74,2.07-2.61,3.1-.92,1.09-1.83,2.18-2.75,3.27-.66.78-1.32,1.56-1.98,2.35-.02.02-.03.07-.08.05.01-.03.03-.06.05-.09.88-1.46,1.12-3.02.72-4.68-.89-3.66-5-5.62-8.43-4.04-.59.27-1.13.64-1.62,1.06,0-.06.03-.1.06-.14.37-.44.74-.88,1.12-1.32.32-.38.64-.75.96-1.13.35-.42.7-.83,1.06-1.25.32-.38.65-.77.97-1.15.42-.49.83-.99,1.25-1.48.42-.49.83-.98,1.25-1.47.36-.42.71-.85,1.07-1.27.32-.38.64-.75.96-1.13.09-.11.2-.2.26-.33Z"/>
      <path class="cls-2" d="m21.01,19.24s0-.05.03-.05c.01.03,0,.05-.03.05Z"/>
      <path class="cls-2" d="m20.98,19.27s.01-.03.04-.03c0,.02-.02.03-.04.03Z"/>
      <path class="cls-4" d="m20.14,20.27s.01-.02.03-.02c0,0-.02.01-.03.02Z"/>
      <path class="cls-4" d="m20.11,20.3s0-.04.03-.03c-.01,0-.02.02-.03.03Z"/>
      <path class="cls-4" d="m20.08,20.33s0-.04.03-.03c0,.02-.01.03-.03.03Z"/>
      <path class="cls-4" d="m20.06,20.35s0-.04.03-.03c0,.02,0,.03-.03.03Z"/>
      <path class="cls-2" d="m11.71,11.49s-.02.02-.03.03c0-.03.02-.03.03-.03Z"/>
      <path class="cls-4" d="m10.81,12.52s-.03.04-.04.06c0-.03.02-.05.04-.06Z"/>
      <path class="cls-4" d="m10.77,12.57s0,.03-.03.03c0-.02,0-.03.03-.03Z"/>
    </g>
  </g>
</svg>