<?xml version="1.0" encoding="UTF-8"?>
<svg id="Layer_2" data-name="Layer 2" xmlns="http://www.w3.org/2000/svg" viewBox="0 0 36.98 37.01">
  <defs>
    <style>
      .cls-1 {
        fill: #22a564;
      }

      .cls-1, .cls-2, .cls-3, .cls-4, .cls-5, .cls-6 {
        stroke-width: 0px;
      }

      .cls-2 {
        fill: #010100;
      }

      .cls-3 {
        fill: #f4f4f4;
      }

      .cls-4 {
        fill: #fec311;
      }

      .cls-5 {
        fill: #f69228;
      }

      .cls-6 {
        fill: #cecece;
      }
    </style>
  </defs>
  <g id="Layer_1-2" data-name="Layer 1">
    <g>
      <path class="cls-1" d="m0,34.34V5.52c.12,0,.08-.11.1-.17.33-1.12,1.36-1.92,2.52-1.92,6.18,0,12.36,0,18.54,0-.09.13-.18.25-.27.38-1.65,2.5-1.99,5.17-1.03,8,.21.63.53,1.22.88,1.79-3.12,3.11-6.22,6.23-9.35,9.33-3.47,3.44-6.91,6.9-10.36,10.36C.68,33.65.35,34,0,34.34ZM9.77,10.15c-.7,0-1.41,0-2.11,0-.16,0-.19.05-.18.19,0,.51,0,1.01,0,1.52,0,.14.04.18.18.18.76,0,1.52,0,2.27,0,.12,0,.17.01.13.16-.07.24-.16.47-.3.67-.66.93-1.6,1.21-2.67,1.07-1.72-.23-2.84-1.95-2.39-3.63.59-2.16,3.08-2.81,4.54-1.54.08.07.12.05.19-.01.38-.39.77-.78,1.16-1.16.13-.12.1-.18-.02-.27-1.14-.96-2.46-1.32-3.92-1.06-1.94.36-3.26,1.5-3.82,3.39-.57,1.93-.07,3.64,1.41,5,1.09,1,2.41,1.37,3.87,1.2,1.28-.15,2.35-.69,3.11-1.75.81-1.13,1.03-2.41.84-3.77-.02-.15-.07-.18-.21-.18-.7,0-1.4,0-2.09,0Z"/>
      <path class="cls-4" d="m20.74,13.61c-.34-.57-.66-1.16-.88-1.79-.96-2.83-.62-5.5,1.03-8,.09-.13.18-.25.27-.38.02-.02.04-.04.06-.06.98-1.23,2.19-2.15,3.65-2.74.7-.28,1.42-.47,2.17-.57.03,0,.12.03.08-.07h2.06c-.05.09.04.06.07.07.22.04.45.06.68.11,3.03.69,5.17,2.46,6.4,5.31.31.71.49,1.45.59,2.22,0,.03-.03.12.07.08v1.99c-.06.05-.06.05-.07.13-.2,1.58-.79,3.01-1.76,4.27-.46.61-1.01,1.14-1.61,1.62-.24.17-.48.35-.73.5-2.49,1.49-5.1,1.74-7.82.74-.8-.29-1.51-.73-2.2-1.22,0,0-.01-.01-.03-.02-.02-.01-.03-.02-.05-.04h0s-.03-.04-.07-.05h0s-.03-.03-.05-.04c-.72-.6-1.34-1.3-1.87-2.08Z"/>
      <path class="cls-4" d="m31.38,37.01h-.22s-.03-.03-.05-.04c-.03,0-.06,0-.09,0-4.69,0-9.39,0-14.08,0-.08,0-.17,0-.25,0,0-.04,0-.08,0-.13,0-3.83,0-7.66,0-11.49,0-.81.28-1.49.8-2.08.61-.69,1.36-1.18,2.15-1.62.47-.26.94-.5,1.45-.68.05.05.1.09.14.14,2.32,2.32,4.64,4.64,6.96,6.96.17.17.17.17.35,0,.37-.38.74-.76,1.11-1.13,1.24-1.26,2.49-2.5,3.73-3.75.05-.05.11-.1.16-.14,0,.02,0,.05,0,.07,0,3.75,0,7.5,0,11.24,0,.33-.05.64-.18.95-.36.87-.99,1.4-1.9,1.64-.04,0-.13-.04-.1.07Z"/>
      <path class="cls-6" d="m21.09,20.97c-.51.17-.98.42-1.45.68-.79.43-1.54.93-2.15,1.62-.53.6-.81,1.27-.8,2.08.01,3.83,0,7.66,0,11.49,0,.04,0,.08,0,.13,0,.02,0,.03,0,.05H2.2c-.06-.03-.12-.07-.19-.09-.99-.29-1.64-.92-1.94-1.91-.01-.03.04-.14-.08-.09,0-.05,0-.1,0-.14,0,0,.02,0,.03,0,0-.01-.02-.02-.03-.03,0-.04,0-.07,0-.11.1.03.08.13.1.2.26.87.82,1.45,1.65,1.78.43.17.87.15,1.32.16.19,0,.32-.06.46-.19,6.57-6.58,13.15-13.16,19.73-19.74.27-.27.26-.26-.02-.51-.17-.15-.37-.27-.44-.5.68.49,1.4.93,2.2,1.22,2.73.99,5.34.75,7.82-.74.25-.15.49-.33.73-.5,0,1.47,0,2.93,0,4.4-1.37-.43-2.76-.75-4.19-.84-1.02-.07-2.03-.03-3.04.11-1.55.22-3.06.62-4.52,1.18-.24.09-.49.16-.71.31Z"/>
      <path class="cls-3" d="m22.79,15.83c.07.23.28.36.44.5.28.25.29.24.02.51-6.58,6.58-13.16,13.16-19.73,19.74-.13.13-.27.19-.46.19-.45,0-.89,0-1.32-.16-.84-.33-1.39-.92-1.65-1.78-.02-.07,0-.16-.1-.2v-.29c.35-.34.68-.69,1.03-1.04,3.45-3.46,6.9-6.92,10.36-10.36,3.12-3.1,6.23-6.23,9.35-9.33.53.78,1.15,1.48,1.87,2.08.02.02.03.03.05.05,0,0,0,0,0,0,0,.04.03.05.07.05,0,0,0,0,0,0,.02.01.03.02.05.04.01,0,.02,0,.03.02Z"/>
      <path class="cls-5" d="m16.68,37.01s0-.03,0-.05c.08,0,.17,0,.25,0,4.69,0,9.39,0,14.08,0,.03,0,.06,0,.09,0,0,0,0,.01,0,.01,0,0,0,.02.01.02h-14.44Z"/>
      <path class="cls-2" d="m0,34.74s.02.02.03.03c0,0-.02,0-.03,0,0-.01,0-.02,0-.04Z"/>
      <path class="cls-2" d="m31.13,37.01s-.01-.01-.01-.02c0,0,0,0,0-.01.02.01.06-.01.05.04h-.04Z"/>
      <path class="cls-3" d="m9.77,10.15c.7,0,1.4,0,2.09,0,.14,0,.19.02.21.18.19,1.36-.03,2.64-.84,3.77-.76,1.06-1.84,1.6-3.11,1.75-1.46.17-2.78-.2-3.87-1.2-1.49-1.37-1.98-3.08-1.41-5,.56-1.88,1.88-3.03,3.82-3.39,1.46-.27,2.78.1,3.92,1.06.11.1.14.15.02.27-.4.38-.78.77-1.16,1.16-.07.07-.11.08-.19.01-1.46-1.27-3.95-.62-4.54,1.54-.46,1.67.67,3.4,2.39,3.63,1.06.14,2.01-.14,2.67-1.07.14-.2.23-.43.3-.67.04-.14,0-.16-.13-.16-.76,0-1.52,0-2.27,0-.14,0-.18-.04-.18-.18,0-.51,0-1.01,0-1.52,0-.15.03-.19.18-.19.7,0,1.41,0,2.11,0Z"/>
      <path class="cls-6" d="m22.71,15.78s-.06-.01-.07-.05c.03,0,.05.02.07.05Z"/>
      <path class="cls-6" d="m22.65,15.74s-.03-.03-.05-.05c.02.02.03.03.05.05Z"/>
      <path class="cls-6" d="m22.76,15.82s-.03-.02-.05-.04c.02.01.03.02.05.04Z"/>
      <path class="cls-5" d="m33.54,20.22c.04.75.01,1.5.02,2.25,0,.19.02.38-.01.57-.05.05-.11.09-.16.14-1.25,1.25-2.5,2.49-3.73,3.75-.37.38-.74.76-1.11,1.13-.18.18-.18.18-.35,0-2.32-2.32-4.64-4.64-6.96-6.96-.05-.05-.1-.09-.14-.14.22-.14.47-.21.71-.31,1.46-.56,2.97-.96,4.52-1.18,1.01-.14,2.02-.18,3.04-.11,1.43.09,2.83.41,4.19.84Z"/>
    </g>
  </g>
</svg>